<?xml version="1.0" encoding="UTF-8" standalone="no"?>
<!-- Uploaded to: SVG Repo, www.svgrepo.com, Generator: SVG Repo Mixer Tools -->

<svg
   fill="#000000"
   version="1.1"
   id="Capa_1"
   width="800px"
   height="800px"
   viewBox="0 0 305.002 305.002"
   xml:space="preserve"
   sodipodi:docname="ok.svg"
   inkscape:version="1.3.1 (91b66b0, 2023-11-16)"
   inkscape:export-filename="ok.png"
   inkscape:export-xdpi="96"
   inkscape:export-ydpi="96"
   xmlns:inkscape="http://www.inkscape.org/namespaces/inkscape"
   xmlns:sodipodi="http://sodipodi.sourceforge.net/DTD/sodipodi-0.dtd"
   xmlns="http://www.w3.org/2000/svg"
   xmlns:svg="http://www.w3.org/2000/svg"><defs
   id="defs3">
	

		
		
	</defs><sodipodi:namedview
   id="namedview3"
   pagecolor="#ffffff"
   bordercolor="#000000"
   borderopacity="0.25"
   inkscape:showpageshadow="2"
   inkscape:pageopacity="0.0"
   inkscape:pagecheckerboard="0"
   inkscape:deskcolor="#d1d1d1"
   inkscape:zoom="0.295"
   inkscape:cx="400"
   inkscape:cy="400"
   inkscape:window-width="1728"
   inkscape:window-height="1051"
   inkscape:window-x="0"
   inkscape:window-y="38"
   inkscape:window-maximized="1"
   inkscape:current-layer="Capa_1" />
<path
   d="M 152.502,0.001 C 68.412,0.001 0,68.412 0,152.501 c 0,84.089 68.412,152.5 152.502,152.5 84.089,0 152.5,-68.411 152.5,-152.5 0,-84.089 -68.411,-152.5 -152.5,-152.5 z"
   id="path1"
   sodipodi:nodetypes="sssss"
   style="fill:#339900;fill-opacity:1" /><path
   d="m 218.473,93.97 -90.546,90.547 -41.398,-41.398 c -4.882,-4.881 -12.796,-4.881 -17.678,0 -4.881,4.882 -4.881,12.796 0,17.678 l 50.237,50.237 c 2.441,2.44 5.64,3.661 8.839,3.661 3.199,0 6.398,-1.221 8.839,-3.661 l 99.385,-99.385 c 4.881,-4.882 4.881,-12.796 0,-17.678 -4.882,-4.882 -12.797,-4.882 -17.678,-0.001 z"
   id="path2"
   style="fill:#ffffff;stroke:#ffffff;stroke-opacity:1;stroke-width:19.062625;stroke-dasharray:none" />
</svg>
