<?xml version="1.0" encoding="UTF-8" standalone="no"?>
<svg
   id="Livello_1"
   data-name="Livello 1"
   version="1.1"
   viewBox="0 0 365 65.000002"
   width="365"
   height="65"
   xmlns="http://www.w3.org/2000/svg"
   xmlns:svg="http://www.w3.org/2000/svg">
  <defs
     id="defs1">
    <style
       id="style1">
      .cls-1 {
        fill: #fdd800;
      }

      .cls-1, .cls-2, .cls-3, .cls-4 {
        stroke-width: 0px;
      }

      .cls-2 {
        fill: #fff;
      }

      .cls-3 {
        fill: #c9ac00;
      }

      .cls-4 {
        fill: #0054c0;
      }
    </style>
  </defs>
  <g
     id="text1"
     style="font-weight:bold;font-size:28.5982px;line-height:1.25;font-family:'IBM Plex Mono';-inkscape-font-specification:'IBM Plex Mono Bold';fill:#0054c0;stroke-width:0.999996"
     aria-label="Open Language&#10;Data Initiative">
    <path
       d="m 114.80589,25.503594 q -4.00375,0 -5.91982,-2.716829 -1.88749,-2.716829 -1.88749,-7.607121 0,-4.890292 1.88749,-7.6071213 1.91607,-2.7168289 5.91982,-2.7168289 4.00375,0 5.89123,2.7168289 1.91608,2.7168293 1.91608,7.6071213 0,4.890292 -1.91608,7.607121 -1.88748,2.716829 -5.89123,2.716829 z m 0,-3.460382 q 1.83029,0 2.51664,-1.344116 0.71496,-1.372713 0.71496,-3.80356 v -3.460382 q 0,-2.402249 -0.71496,-3.7463645 -0.68635,-1.3727136 -2.51664,-1.3727136 -1.83028,0 -2.54524,1.3727136 -0.68635,1.3441155 -0.68635,3.7463645 v 3.48898 q 0,2.402249 0.68635,3.774962 0.71496,1.344116 2.54524,1.344116 z m 10.26677,-11.639467 h 4.23253 v 2.68823 h 0.20019 q 0.54337,-1.315517 1.5729,-2.173463 1.02954,-0.857946 2.80262,-0.857946 1.22973,0 2.23066,0.457571 1.02954,0.457572 1.74449,1.401312 0.74356,0.943741 1.14393,2.402249 0.42897,1.458508 0.42897,3.460382 0,2.001874 -0.42897,3.460382 -0.40037,1.458508 -1.14393,2.402249 -0.71495,0.943741 -1.74449,1.401312 -1.00093,0.457571 -2.23066,0.457571 -1.77308,0 -2.80262,-0.829348 -1.02953,-0.857946 -1.5729,-2.202061 h -0.20019 v 8.407871 h -4.23253 z m 6.97796,11.811056 q 1.42991,0 2.20206,-0.857946 0.77215,-0.886544 0.77215,-2.430847 v -2.287856 q 0,-1.544303 -0.77215,-2.402249 -0.77215,-0.886544 -2.20206,-0.886544 -1.11533,0 -1.94468,0.543366 -0.80075,0.543366 -0.80075,1.715892 v 4.346926 q 0,1.172526 0.80075,1.715892 0.82935,0.543366 1.94468,0.543366 z m 17.47351,3.288793 q -3.71776,0 -5.63384,-2.05907 -1.91608,-2.059071 -1.91608,-5.605248 0,-1.801686 0.48617,-3.231596 0.51476,-1.458508 1.42991,-2.459445 0.94374,-1.029535 2.25925,-1.544303 1.34412,-0.543366 3.00281,-0.543366 1.6587,0 2.97422,0.543366 1.31551,0.514768 2.23066,1.487106 0.91514,0.972339 1.40131,2.373651 0.51477,1.372714 0.51477,3.088605 v 1.258321 h -10.09517 v 0.257384 q 0,1.42991 0.88655,2.316454 0.88654,0.857946 2.60243,0.857946 1.31552,0 2.25926,-0.486169 0.94374,-0.514768 1.6301,-1.344116 l 2.28785,2.488044 q -0.85794,1.058133 -2.40225,1.830285 -1.5443,0.772151 -3.91795,0.772151 z m -0.34318,-12.411619 q -1.37271,0 -2.20206,0.857946 -0.80075,0.829348 -0.80075,2.259258 v 0.228786 h 5.94843 v -0.228786 q 0,-1.458508 -0.80075,-2.287856 -0.77215,-0.829348 -2.14487,-0.829348 z m 10.38116,12.068441 V 10.403745 h 4.23253 v 2.68823 h 0.17159 q 0.25739,-0.62916 0.62916,-1.172526 0.37178,-0.543366 0.88655,-0.94374 0.54336,-0.428973 1.22972,-0.657759 0.71496,-0.257384 1.6015,-0.257384 1.05813,0 1.94468,0.371777 0.88654,0.343178 1.5157,1.058133 0.62916,0.714955 0.97234,1.74449 0.37178,1.029536 0.37178,2.373651 v 9.551799 h -4.23254 v -8.979835 q 0,-2.85982 -2.48804,-2.85982 -0.48617,0 -0.97234,0.142991 -0.45757,0.114393 -0.82935,0.400375 -0.37177,0.257384 -0.60056,0.657758 -0.20019,0.400375 -0.20019,0.943741 v 9.69479 z m 35.09002,0 V 5.1988722 h 4.31833 V 21.642837 h 8.57946 v 3.517579 z m 28.45522,0 q -1.31552,0 -2.11627,-0.657759 -0.80075,-0.686357 -0.94374,-1.944678 h -0.14299 q -0.40038,1.458509 -1.6015,2.202062 -1.17253,0.743553 -2.88842,0.743553 -2.14486,0 -3.46038,-1.143928 -1.28692,-1.172526 -1.28692,-3.260195 0,-2.316454 1.68729,-3.431784 1.6873,-1.11533 4.94749,-1.11533 h 2.37365 v -0.743553 q 0,-1.315517 -0.62916,-1.973275 -0.60056,-0.686357 -2.05907,-0.686357 -1.34411,0 -2.17346,0.514767 -0.82935,0.514768 -1.42991,1.344116 l -2.31646,-2.059071 q 0.74356,-1.25832 2.31646,-2.05907 1.6015,-0.829348 4.08954,-0.829348 3.03141,0 4.7187,1.401312 1.7159,1.372714 1.7159,4.175337 v 6.463193 h 1.63009 v 3.060008 z m -6.09142,-2.430847 q 1.11533,0 1.88748,-0.543366 0.77215,-0.543366 0.77215,-1.572901 v -1.773089 h -2.25926 q -2.60243,0 -2.60243,1.744491 v 0.571964 q 0,0.772151 0.60056,1.172526 0.60056,0.400375 1.6015,0.400375 z m 11.1819,2.430847 V 10.403745 h 4.23254 v 2.68823 h 0.17159 q 0.25738,-0.62916 0.62916,-1.172526 0.37177,-0.543366 0.88654,-0.94374 0.54337,-0.428973 1.22972,-0.657759 0.71496,-0.257384 1.6015,-0.257384 1.05814,0 1.94468,0.371777 0.88655,0.343178 1.51571,1.058133 0.62916,0.714955 0.97233,1.74449 0.37178,1.029536 0.37178,2.373651 v 9.551799 h -4.23253 v -8.979835 q 0,-2.85982 -2.48805,-2.85982 -0.48617,0 -0.97233,0.142991 -0.45758,0.114393 -0.82935,0.400375 -0.37178,0.257384 -0.60056,0.657758 -0.20019,0.400375 -0.20019,0.943741 v 9.69479 z m 31.97281,1.487106 q 0,2.345052 -1.97328,3.460382 -1.97327,1.11533 -6.20581,1.11533 -2.11626,0 -3.48898,-0.257384 -1.37271,-0.228785 -2.20206,-0.686357 -0.80075,-0.457571 -1.14393,-1.086731 -0.31458,-0.629161 -0.31458,-1.372714 0,-1.258321 0.74356,-1.916079 0.74355,-0.629161 2.08766,-0.972339 v -0.171589 q -0.94374,-0.285982 -1.5157,-0.80075 -0.54337,-0.543366 -0.54337,-1.515704 0,-1.086732 0.71496,-1.6015 0.74355,-0.514767 1.94468,-0.800749 v -0.171589 q -1.31552,-0.629161 -2.05907,-1.773089 -0.71496,-1.143928 -0.71496,-2.774025 0,-1.286919 0.45757,-2.259258 0.45757,-1.000937 1.28692,-1.658695 0.85795,-0.657759 2.03047,-1.000937 1.17253,-0.343179 2.63104,-0.343179 1.40131,0 2.60243,0.31458 V 9.5743967 q 0,-0.857946 0.60057,-1.42991 0.60056,-0.571964 1.65869,-0.571964 h 2.60244 v 3.0886053 h -3.54618 v 0.257384 q 1.20113,0.629161 1.85888,1.74449 0.68636,1.086732 0.68636,2.659633 0,1.286919 -0.45757,2.259258 -0.45757,0.972338 -1.31552,1.658695 -0.85794,0.657759 -2.05907,1.000937 -1.17252,0.343179 -2.63103,0.343179 -0.65776,0 -1.25832,-0.0572 -0.60057,-0.08579 -1.14393,-0.228785 -0.31458,0.171589 -0.54337,0.428973 -0.20018,0.257383 -0.20018,0.657758 0,0.343179 0.17158,0.543366 0.17159,0.200187 0.45758,0.31458 0.31458,0.0858 0.71495,0.114393 0.40038,0.0286 0.82935,0.0286 h 3.37459 q 1.5729,0 2.68823,0.31458 1.11533,0.314581 1.83028,0.886545 0.71496,0.571964 1.02954,1.344115 0.31458,0.772151 0.31458,1.715892 z m -4.00375,0.31458 q 0,-0.571964 -0.45757,-0.915142 -0.45757,-0.31458 -1.74449,-0.31458 h -5.06188 q -0.57197,0.486169 -0.57197,1.201124 0,0.686357 0.57197,1.11533 0.60056,0.457571 2.00187,0.457571 h 2.48804 q 1.45851,0 2.11627,-0.400375 0.65776,-0.400375 0.65776,-1.143928 z m -4.26113,-9.065629 q 1.28692,0 1.85888,-0.629161 0.60056,-0.62916 0.60056,-1.601499 v -0.686356 q 0,-0.972339 -0.60056,-1.6015 -0.57196,-0.62916 -1.85888,-0.62916 -1.25832,0 -1.83029,0.62916 -0.57196,0.629161 -0.57196,1.6015 v 0.686356 q 0,0.972339 0.57196,1.601499 0.57197,0.629161 1.83029,0.629161 z m 19.81857,4.575712 h -0.17159 q -0.48617,1.258321 -1.54431,2.144865 -1.02953,0.886544 -2.80262,0.886544 -1.05813,0 -1.94468,-0.343178 -0.88654,-0.371777 -1.5157,-1.086732 -0.62916,-0.714955 -1.00094,-1.74449 -0.34318,-1.029535 -0.34318,-2.373651 v -9.551798 h 4.23254 v 8.979834 q 0,2.85982 2.48804,2.85982 0.48617,0 0.94374,-0.114393 0.48617,-0.142991 0.82935,-0.400374 0.37177,-0.285982 0.60056,-0.686357 0.22879,-0.400375 0.22879,-0.943741 v -9.694789 h 4.23253 v 14.756671 h -4.23253 z m 20.01875,2.688231 q -1.31552,0 -2.11627,-0.657759 -0.80075,-0.686357 -0.94374,-1.944678 h -0.14299 q -0.40037,1.458509 -1.6015,2.202062 -1.17252,0.743553 -2.88841,0.743553 -2.14487,0 -3.46039,-1.143928 -1.28692,-1.172526 -1.28692,-3.260195 0,-2.316454 1.6873,-3.431784 1.68729,-1.11533 4.94749,-1.11533 h 2.37365 v -0.743553 q 0,-1.315517 -0.62916,-1.973275 -0.60057,-0.686357 -2.05907,-0.686357 -1.34412,0 -2.17347,0.514767 -0.82934,0.514768 -1.42991,1.344116 l -2.31645,-2.059071 q 0.74355,-1.25832 2.31645,-2.05907 1.6015,-0.829348 4.08955,-0.829348 3.0314,0 4.7187,1.401312 1.71589,1.372714 1.71589,4.175337 v 6.463193 h 1.6301 v 3.060008 z m -6.09142,-2.430847 q 1.11533,0 1.88749,-0.543366 0.77215,-0.543366 0.77215,-1.572901 v -1.773089 h -2.25926 q -2.60244,0 -2.60244,1.744491 v 0.571964 q 0,0.772151 0.60057,1.172526 0.60056,0.400375 1.60149,0.400375 z m 25.99577,3.917953 q 0,2.345052 -1.97328,3.460382 -1.97327,1.11533 -6.20581,1.11533 -2.11626,0 -3.48898,-0.257384 -1.37271,-0.228785 -2.20206,-0.686357 -0.80075,-0.457571 -1.14393,-1.086731 -0.31458,-0.629161 -0.31458,-1.372714 0,-1.258321 0.74356,-1.916079 0.74355,-0.629161 2.08767,-0.972339 v -0.171589 q -0.94375,-0.285982 -1.51571,-0.80075 -0.54337,-0.543366 -0.54337,-1.515704 0,-1.086732 0.71496,-1.6015 0.74355,-0.514767 1.94468,-0.800749 v -0.171589 q -1.31552,-0.629161 -2.05907,-1.773089 -0.71496,-1.143928 -0.71496,-2.774025 0,-1.286919 0.45757,-2.259258 0.45757,-1.000937 1.28692,-1.658695 0.85795,-0.657759 2.03047,-1.000937 1.17253,-0.343179 2.63104,-0.343179 1.40131,0 2.60243,0.31458 V 9.5743967 q 0,-0.857946 0.60057,-1.42991 0.60056,-0.571964 1.65869,-0.571964 h 2.60244 v 3.0886053 h -3.54618 v 0.257384 q 1.20113,0.629161 1.85889,1.74449 0.68635,1.086732 0.68635,2.659633 0,1.286919 -0.45757,2.259258 -0.45757,0.972338 -1.31552,1.658695 -0.85794,0.657759 -2.05907,1.000937 -1.17252,0.343179 -2.63103,0.343179 -0.65776,0 -1.25832,-0.0572 -0.60056,-0.08579 -1.14393,-0.228785 -0.31458,0.171589 -0.54337,0.428973 -0.20018,0.257383 -0.20018,0.657758 0,0.343179 0.17159,0.543366 0.17159,0.200187 0.45757,0.31458 0.31458,0.0858 0.71495,0.114393 0.40038,0.0286 0.82935,0.0286 h 3.37459 q 1.5729,0 2.68823,0.31458 1.11533,0.314581 1.83028,0.886545 0.71496,0.571964 1.02954,1.344115 0.31458,0.772151 0.31458,1.715892 z m -4.00375,0.31458 q 0,-0.571964 -0.45757,-0.915142 -0.45757,-0.31458 -1.74449,-0.31458 h -5.06188 q -0.57197,0.486169 -0.57197,1.201124 0,0.686357 0.57197,1.11533 0.60056,0.457571 2.00187,0.457571 h 2.48805 q 1.4585,0 2.11626,-0.400375 0.65776,-0.400375 0.65776,-1.143928 z m -4.26113,-9.065629 q 1.28692,0 1.85888,-0.629161 0.60056,-0.62916 0.60056,-1.601499 v -0.686356 q 0,-0.972339 -0.60056,-1.6015 -0.57196,-0.62916 -1.85888,-0.62916 -1.25832,0 -1.83029,0.62916 -0.57196,0.629161 -0.57196,1.6015 v 0.686356 q 0,0.972339 0.57196,1.601499 0.57197,0.629161 1.83029,0.629161 z m 17.7309,7.607121 q -3.71777,0 -5.63385,-2.05907 -1.91608,-2.059071 -1.91608,-5.605248 0,-1.801686 0.48617,-3.231596 0.51477,-1.458508 1.42991,-2.459445 0.94374,-1.029535 2.25926,-1.544303 1.34412,-0.543366 3.00281,-0.543366 1.6587,0 2.97421,0.543366 1.31552,0.514768 2.23066,1.487106 0.91515,0.972339 1.40132,2.373651 0.51476,1.372714 0.51476,3.088605 v 1.258321 h -10.09516 v 0.257384 q 0,1.42991 0.88654,2.316454 0.88655,0.857946 2.60244,0.857946 1.31552,0 2.25926,-0.486169 0.94374,-0.514768 1.63009,-1.344116 l 2.28786,2.488044 q -0.85795,1.058133 -2.40225,1.830285 -1.5443,0.772151 -3.91795,0.772151 z m -0.34318,-12.411619 q -1.37271,0 -2.20206,0.857946 -0.80075,0.829348 -0.80075,2.259258 v 0.228786 h 5.94842 v -0.228786 q 0,-1.458508 -0.80075,-2.287856 -0.77215,-0.829348 -2.14486,-0.829348 z"
       id="path27" />
    <path
       d="m 108.05672,40.946622 h 6.43459 q 4.03235,0 5.97703,2.573838 1.94467,2.573838 1.94467,7.406934 0,4.833095 -1.94467,7.406933 -1.94468,2.573838 -5.97703,2.573838 h -6.43459 z m 6.14861,16.586956 q 1.91608,0 2.80262,-1.229723 0.88655,-1.229722 0.88655,-3.574775 v -3.631971 q 0,-2.316454 -0.88655,-3.546177 -0.88654,-1.229722 -2.80262,-1.229722 h -1.91608 v 13.212368 z m 23.10736,3.374587 q -1.31552,0 -2.11627,-0.657758 -0.80075,-0.686357 -0.94374,-1.944678 h -0.14299 q -0.40038,1.458508 -1.6015,2.202062 -1.17253,0.743553 -2.88842,0.743553 -2.14486,0 -3.46038,-1.143928 -1.28692,-1.172526 -1.28692,-3.260195 0,-2.316454 1.68729,-3.431784 1.6873,-1.11533 4.94749,-1.11533 h 2.37365 v -0.743553 q 0,-1.315517 -0.62916,-1.973276 -0.60056,-0.686356 -2.05907,-0.686356 -1.34411,0 -2.17346,0.514767 -0.82935,0.514768 -1.42991,1.344116 l -2.31645,-2.059071 q 0.74355,-1.258321 2.31645,-2.05907 1.6015,-0.829348 4.08954,-0.829348 3.03141,0 4.71871,1.401312 1.71589,1.372713 1.71589,4.175337 v 6.463193 h 1.63009 v 3.060007 z m -6.09142,-2.430847 q 1.11533,0 1.88748,-0.543365 0.77215,-0.543366 0.77215,-1.572901 v -1.773089 h -2.25925 q -2.60244,0 -2.60244,1.74449 v 0.571964 q 0,0.772152 0.60056,1.172527 0.60056,0.400374 1.6015,0.400374 z m 19.04641,2.430847 q -2.28785,0 -3.40318,-1.201124 -1.11533,-1.201124 -1.11533,-3.060007 v -7.206747 h -4.00375 v -3.288793 h 2.60244 q 0.94374,0 1.34411,-0.371776 0.40038,-0.371777 0.40038,-1.372714 v -3.460382 h 3.88935 v 5.204872 h 5.74824 v 3.288793 h -5.74824 v 8.179085 h 5.74824 v 3.288793 z m 21.36287,0 q -1.31552,0 -2.11627,-0.657758 -0.80075,-0.686357 -0.94374,-1.944678 h -0.14299 q -0.40037,1.458508 -1.6015,2.202062 -1.17252,0.743553 -2.88841,0.743553 -2.14487,0 -3.46039,-1.143928 -1.28692,-1.172526 -1.28692,-3.260195 0,-2.316454 1.6873,-3.431784 1.68729,-1.11533 4.94749,-1.11533 h 2.37365 v -0.743553 q 0,-1.315517 -0.62916,-1.973276 -0.60057,-0.686356 -2.05907,-0.686356 -1.34412,0 -2.17347,0.514767 -0.82934,0.514768 -1.42991,1.344116 l -2.31645,-2.059071 q 0.74355,-1.258321 2.31645,-2.05907 1.6015,-0.829348 4.08955,-0.829348 3.03141,0 4.7187,1.401312 1.71589,1.372713 1.71589,4.175337 v 6.463193 h 1.6301 v 3.060007 z m -6.09142,-2.430847 q 1.11533,0 1.88749,-0.543365 0.77215,-0.543366 0.77215,-1.572901 v -1.773089 h -2.25926 q -2.60244,0 -2.60244,1.74449 v 0.571964 q 0,0.772152 0.60057,1.172527 0.60056,0.400374 1.60149,0.400374 z m 28.62683,2.430847 v -3.1744 h 4.28973 V 44.121022 h -4.28973 v -3.1744 h 12.86919 v 3.1744 h -4.28973 v 13.612743 h 4.28973 v 3.1744 z m 16.87295,0 V 46.151494 h 4.23253 v 2.688231 h 0.17159 q 0.25738,-0.62916 0.62916,-1.172526 0.37178,-0.543366 0.88654,-0.943741 0.54337,-0.428973 1.22973,-0.657758 0.71495,-0.257384 1.6015,-0.257384 1.05813,0 1.94467,0.371777 0.88655,0.343178 1.51571,1.058133 0.62916,0.714955 0.97234,1.74449 0.37177,1.029535 0.37177,2.373651 v 9.551798 h -4.23253 v -8.979834 q 0,-2.85982 -2.48804,-2.85982 -0.48617,0 -0.97234,0.142991 -0.45757,0.114393 -0.82935,0.400375 -0.37178,0.257383 -0.60056,0.657758 -0.20019,0.400375 -0.20019,0.943741 v 9.694789 z m 24.79464,-16.644152 q -1.42991,0 -2.00187,-0.571964 -0.54337,-0.600562 -0.54337,-1.42991 v -0.829348 q 0,-0.857946 0.54337,-1.42991 0.57196,-0.571964 2.00187,-0.571964 1.42991,0 1.97328,0.571964 0.57196,0.571964 0.57196,1.42991 v 0.829348 q 0,0.829348 -0.57196,1.42991 -0.54337,0.571964 -1.97328,0.571964 z m -6.80637,13.355359 h 4.69011 v -8.179085 h -4.69011 v -3.288793 h 8.92264 v 11.467878 h 4.34693 v 3.288793 h -13.26957 z m 24.19409,3.288793 q -2.28785,0 -3.40318,-1.201124 -1.11533,-1.201124 -1.11533,-3.060007 v -7.206747 h -4.00375 v -3.288793 h 2.60244 q 0.94374,0 1.34411,-0.371776 0.40038,-0.371777 0.40038,-1.372714 v -3.460382 h 3.88935 v 5.204872 h 5.74824 v 3.288793 h -5.74824 v 8.179085 h 5.74824 v 3.288793 z m 16.93015,-16.644152 q -1.42991,0 -2.00187,-0.571964 -0.54337,-0.600562 -0.54337,-1.42991 v -0.829348 q 0,-0.857946 0.54337,-1.42991 0.57196,-0.571964 2.00187,-0.571964 1.42991,0 1.97328,0.571964 0.57196,0.571964 0.57196,1.42991 v 0.829348 q 0,0.829348 -0.57196,1.42991 -0.54337,0.571964 -1.97328,0.571964 z m -6.80637,13.355359 h 4.69011 v -8.179085 h -4.69011 v -3.288793 h 8.92264 v 11.467878 h 4.34693 v 3.288793 h -13.26957 z m 28.39803,3.288793 q -1.31552,0 -2.11627,-0.657758 -0.80075,-0.686357 -0.94374,-1.944678 h -0.14299 q -0.40037,1.458508 -1.6015,2.202062 -1.17252,0.743553 -2.88841,0.743553 -2.14487,0 -3.46039,-1.143928 -1.28692,-1.172526 -1.28692,-3.260195 0,-2.316454 1.6873,-3.431784 1.68729,-1.11533 4.94749,-1.11533 h 2.37365 v -0.743553 q 0,-1.315517 -0.62916,-1.973276 -0.60057,-0.686356 -2.05907,-0.686356 -1.34412,0 -2.17347,0.514767 -0.82934,0.514768 -1.42991,1.344116 l -2.31645,-2.059071 q 0.74355,-1.258321 2.31645,-2.05907 1.6015,-0.829348 4.08955,-0.829348 3.0314,0 4.7187,1.401312 1.71589,1.372713 1.71589,4.175337 v 6.463193 h 1.6301 v 3.060007 z m -6.09142,-2.430847 q 1.11533,0 1.88749,-0.543365 0.77215,-0.543366 0.77215,-1.572901 v -1.773089 h -2.25926 q -2.60244,0 -2.60244,1.74449 v 0.571964 q 0,0.772152 0.60057,1.172527 0.60056,0.400374 1.60149,0.400374 z m 19.04641,2.430847 q -2.28786,0 -3.40319,-1.201124 -1.11533,-1.201124 -1.11533,-3.060007 v -7.206747 h -4.00375 v -3.288793 h 2.60244 q 0.94374,0 1.34411,-0.371776 0.40038,-0.371777 0.40038,-1.372714 v -3.460382 h 3.88935 v 5.204872 h 5.74824 v 3.288793 h -5.74824 v 8.179085 h 5.74824 v 3.288793 z m 16.93015,-16.644152 q -1.42991,0 -2.00188,-0.571964 -0.54336,-0.600562 -0.54336,-1.42991 v -0.829348 q 0,-0.857946 0.54336,-1.42991 0.57197,-0.571964 2.00188,-0.571964 1.42991,0 1.97327,0.571964 0.57197,0.571964 0.57197,1.42991 v 0.829348 q 0,0.829348 -0.57197,1.42991 -0.54336,0.571964 -1.97327,0.571964 z m -6.80638,13.355359 h 4.69011 v -8.179085 h -4.69011 v -3.288793 h 8.92264 v 11.467878 h 4.34693 v 3.288793 h -13.26957 z m 20.53353,3.288793 -5.29067,-14.756671 h 4.46132 l 1.91608,6.320203 1.40131,4.91889 h 0.22879 l 1.40131,-4.91889 1.91608,-6.320203 h 4.28973 l -5.29067,14.756671 z m 20.07593,0.343179 q -3.71776,0 -5.63384,-2.059071 -1.91608,-2.05907 -1.91608,-5.605247 0,-1.801686 0.48617,-3.231596 0.51477,-1.458508 1.42991,-2.459445 0.94374,-1.029536 2.25926,-1.544303 1.34411,-0.543366 3.00281,-0.543366 1.65869,0 2.97421,0.543366 1.31552,0.514767 2.23066,1.487106 0.91514,0.972339 1.40131,2.373651 0.51477,1.372713 0.51477,3.088605 v 1.258321 h -10.09517 v 0.257384 q 0,1.42991 0.88655,2.316454 0.88654,0.857946 2.60244,0.857946 1.31551,0 2.25925,-0.486169 0.94374,-0.514768 1.6301,-1.344116 l 2.28786,2.488044 q -0.85795,1.058133 -2.40225,1.830284 -1.54431,0.772152 -3.91796,0.772152 z m -0.34317,-12.411619 q -1.37272,0 -2.20207,0.857946 -0.80075,0.829348 -0.80075,2.259258 v 0.228786 h 5.94843 v -0.228786 q 0,-1.458508 -0.80075,-2.287856 -0.77215,-0.829348 -2.14486,-0.829348 z"
       id="path28" />
  </g>
  <g
     id="g2"
     transform="translate(-47.18048,-47.675)">
    <path
       class="cls-3"
       d="m 130.11,82.52 c 1.95,-2.44 2.27,-5.2 2.08,-7.38 -0.13,-1.53 -1.16,-2.83 -2.61,-3.32 -0.4,-0.13 -0.81,-0.2 -1.22,-0.2 -0.91,0 -1.8,0.32 -2.5,0.92 -0.49,-1.14 -1.1,-2.36 -1.78,-3.57 -0.03,-0.07 -0.07,-0.13 -0.11,-0.2 -0.05,-0.09 -0.1,-0.17 -0.16,-0.26 l -0.04,-0.07 c -0.15,-0.26 -0.31,-0.53 -0.48,-0.8 -0.13,-0.21 -0.26,-0.42 -0.4,-0.63 l -0.06,-0.09 c -0.06,-0.09 -0.11,-0.18 -0.17,-0.27 -0.05,-0.08 -0.1,-0.15 -0.15,-0.22 C 118.49,60.35 109.52,50.3 94.05,50 c -0.03,0 -0.05,0 -0.08,0 -2.42,0 -4.93,0.32 -7.46,0.94 -0.03,0 -0.05,0.01 -0.08,0.02 -4.72,1.27 -9.31,3.61 -13.62,6.97 -0.04,0.03 -0.08,0.06 -0.12,0.1 l -0.24,0.21 c -1.62,1.37 -1.83,3.8 -0.46,5.42 l 5.24,6.21 -2.63,2.22 -6.12,-5.25 -2.89,-2.48 c -0.71,-0.61 -1.6,-0.93 -2.51,-0.93 -0.54,0 -1.09,0.12 -1.61,0.35 -1.37,0.63 -2.24,1.99 -2.24,3.5 v 27.96 c 0,1.5 0.87,2.87 2.24,3.5 0.51,0.24 1.06,0.35 1.61,0.35 0.9,0 1.8,-0.32 2.51,-0.93 l 5.79,-4.97 3.16,-2.71 3.46,2.92 -3.12,3.69 c -0.66,0.78 -0.98,1.79 -0.89,2.81 0.09,1.02 0.57,1.96 1.35,2.62 l 0.23,0.19 c 0,0 0.08,0.06 0.12,0.1 4.8,3.73 9.96,6.13 15.34,7.13 0.03,0 0.06,0.01 0.08,0.01 1.66,0.27 3.2,0.4 4.71,0.4 7.86,0 15.23,-2.95 21.33,-8.54 0.36,-0.33 0.73,-0.68 1.1,-1.05 3.58,-3.57 6.09,-7.49 7.46,-10.29 0.59,0.33 1.24,0.5 1.9,0.5 0.7,0 1.41,-0.19 2.03,-0.58 1.3,-0.81 2,-2.3 1.78,-3.82 -0.22,-1.51 -0.66,-2.86 -1.31,-4.03 z"
       id="path1"
       style="fill:#c9ac00;stroke-width:0px" />
    <path
       class="cls-2"
       d="m 130.08,75.33 c -0.06,-0.69 -0.52,-1.28 -1.18,-1.5 -0.64,-0.22 -1.39,-0.02 -1.84,0.49 -1.09,1.21 -1.62,1.35 -1.92,1.35 -0.12,0 -0.25,-0.02 -0.4,-0.06 -0.25,-0.83 -0.96,-2.86 -2.54,-5.65 -0.02,-0.05 -0.04,-0.09 -0.07,-0.14 -0.04,-0.07 -0.08,-0.14 -0.12,-0.21 l -0.06,-0.11 c -0.15,-0.25 -0.3,-0.5 -0.46,-0.76 -0.12,-0.2 -0.25,-0.4 -0.38,-0.6 l -0.08,-0.12 c -0.05,-0.08 -0.09,-0.15 -0.15,-0.23 -0.02,-0.04 -0.05,-0.07 -0.08,-0.11 l -0.02,-0.03 c -3.75,-5.69 -12.21,-15.27 -26.82,-15.56 -2.25,0 -4.59,0.3 -6.96,0.88 -4.47,1.2 -8.81,3.42 -12.9,6.6 -0.02,0.02 -0.04,0.03 -0.06,0.04 l -0.24,0.21 c -0.73,0.62 -0.82,1.71 -0.21,2.44 l 6.6,7.83 -5.62,4.74 -10.38,-8.9 c -0.5,-0.43 -1.24,-0.54 -1.85,-0.26 -0.61,0.28 -1.01,0.9 -1.01,1.58 v 27.96 c 0,0.68 0.4,1.29 1.01,1.58 0.6,0.28 1.35,0.17 1.85,-0.26 l 10.32,-8.85 6.45,5.44 -4.48,5.31 c -0.3,0.35 -0.44,0.8 -0.4,1.27 0.04,0.46 0.26,0.88 0.61,1.18 l 0.28,0.24 c 4.53,3.52 9.38,5.78 14.43,6.72 1.57,0.26 3.01,0.38 4.4,0.38 7.42,0 14.12,-2.69 19.9,-7.98 0.34,-0.31 0.69,-0.64 1.03,-0.98 4.62,-4.6 7.13,-9.52 7.85,-11.57 0.14,-0.02 0.29,0 0.46,0.04 0.42,0.12 0.94,0.39 1.56,0.81 0.56,0.38 1.33,0.4 1.9,0.04 0.58,-0.36 0.9,-1.04 0.8,-1.72 -0.26,-1.83 -0.92,-3.36 -1.94,-4.54 2.04,-1.78 2.94,-4.13 2.7,-6.98 z"
       id="path2"
       style="fill:#ffffff;stroke-width:0px" />
    <path
       class="cls-1"
       d="m 116.59,66.98 4.04,3.7 c -3.93,-6.9 -12.38,-16.57 -26.65,-16.85 -2.19,0 -4.38,0.3 -6.54,0.83 -4.15,1.12 -8.29,3.2 -12.26,6.29 l -0.24,0.21 6.62,7.85 5.04,-4.25 c 11.12,-8.65 23.13,-5.5 29.99,2.22 z"
       id="path3"
       style="fill:#fdd800;stroke-width:0px" />
    <g
       id="g5"
       transform="translate(47.84,48.76)">
      <path
         class="cls-1"
         d="M 75.59,28.39 75.5,28.37 75.36,27.79 C 74.99,26.31 73.78,23.32 71.6,19.99 65.06,11.43 52.46,7.43 40.96,16.38 L 26.74,28.37 15.24,18.5 v 9.05 l 0.22,-0.18 13.41,6.12 13.66,2.43 10.29,-2.41 0.6,-0.52 c 0.31,-5.06 2.13,-10.47 6.24,-14 -4.19,10.84 -1.87,23.94 7.08,31.18 5.23,-4.82 8.04,-10.51 8.5,-12.17 l 0.13,-0.47 0.21,-0.08 c 0.73,-3.06 0.69,-6.14 0.02,-9.06 z"
         id="path4"
         style="fill:#fdd800;stroke-width:0px" />
      <rect
         class="cls-1"
         x="13.52"
         y="41.810001"
         width="14.29"
         height="0"
         transform="rotate(-40.63,20.672862,41.807097)"
         id="rect4"
         style="fill:#fdd800;stroke-width:0px" />
      <polygon
         class="cls-1"
         points="27.29,37.15 40.96,48.68 "
         id="polygon4"
         style="fill:#fdd800;stroke-width:0px" />
      <path
         class="cls-1"
         d="m 66.72,50.19 v 0 c 0,0 0,0 0.01,-0.01 z"
         id="path5"
         style="fill:#fdd800;stroke-width:0px" />
    </g>
    <path
       class="cls-3"
       d="m 107.5,67.75 c -4.11,3.53 -6.15,8.43 -6.46,13.49 L 101.02,81.63 90.37,84.67 76.71,82.24 63.3,76.12 63.08,76.3 v 18.91 l 10.84,-9.3 c 0.35,-0.3 0.85,-0.3 1.2,0 l 13.67,11.53 c 3.28,2.77 6.97,4.66 10.75,5.42 -4.65,-0.21 -9.23,-1.9 -12.94,-5.04 l -4.27,-3.6 -4.5,5.33 0.23,0.19 c 4.51,3.51 9.16,5.55 13.68,6.39 1.36,0.22 2.73,0.35 4.09,0.35 8.1,0 14.3,-3.47 18.73,-7.53 0,0 0.01,-0.01 0.02,-0.02 -8.95,-7.24 -11.27,-20.34 -7.08,-31.18 z"
       id="path6"
       style="fill:#c9ac00;stroke-width:0px" />
    <circle
       class="cls-2"
       cx="114.67999"
       cy="77.379997"
       r="4.4899998"
       id="circle6"
       style="fill:#ffffff;stroke-width:0px" />
    <circle
       class="cls-4"
       cx="114.67999"
       cy="76.519997"
       r="3.1500001"
       id="circle7"
       style="fill:#0054c0;stroke-width:0px" />
    <circle
       class="cls-2"
       cx="115.75"
       cy="75.440002"
       r="0.89999998"
       id="circle8"
       style="fill:#ffffff;stroke-width:0px" />
    <path
       class="cls-2"
       d="m 75.25,84.3 c -2.17,-0.96 -4.2,-2.35 -6.24,-3.53 -4.43,-2.41 -9.42,-2.69 -14.14,-1.14 4.11,-0.12 8.21,0.63 11.85,2.42 2.34,1.11 4.17,2.79 6.54,3.96 9.68,5.04 23.04,2.72 30.15,-5.35 -7.31,6.7 -19.19,7.7 -28.17,3.63 z"
       id="path8"
       style="fill:#ffffff;stroke-width:0px" />
    <path
       class="cls-4"
       d="m 103.42,80.67 c -7.31,6.7 -19.19,7.7 -28.17,3.63 -2.17,-0.96 -4.2,-2.35 -6.24,-3.53 -6,-3.27 -13.03,-2.63 -19.01,1.18 2.9,-3.81 7.88,-6.28 13.14,-6.23 5.17,-0.21 9.41,2.83 13.79,5 8.38,3.7 17.92,3.58 26.49,-0.05 z"
       id="path9"
       style="fill:#0054c0;stroke-width:0px" />
    <path
       class="cls-1"
       d="m 120.95,75.82 c 3.4,1.66 4.7,2.67 7.4,-0.34 0.44,5.07 -3.5,6.93 -7.62,8.21 z"
       id="path10"
       style="fill:#fdd800;stroke-width:0px" />
    <path
       class="cls-1"
       d="m 118.75,80.78 c 1.85,0.31 4.16,0.43 5.95,1.52 1.84,1.07 2.64,2.93 2.91,4.79 -0.69,-0.47 -1.4,-0.87 -2.09,-1.06 -2.2,-0.59 -3.19,1.27 -4.89,2.39 0,0 -1.88,-7.65 -1.88,-7.65 v 0 z"
       id="path11"
       style="fill:#fdd800;stroke-width:0px" />
    <g
       id="g13"
       transform="translate(47.84,48.76)">
      <path
         class="cls-4"
         d="m 87.59,20.77 v 1.57 c 5.04,0.84 8.89,5.21 8.89,10.48 0,5.27 -3.85,9.64 -8.89,10.48 v 1.57 c 5.89,-0.85 10.44,-5.92 10.44,-12.05 0,-6.13 -4.55,-11.2 -10.44,-12.05 z"
         id="path12"
         style="fill:#0054c0;stroke-width:0px" />
      <path
         class="cls-4"
         d="m 87.49,44.99 v -1.77 h 0.08 c 5.1,-0.86 8.81,-5.23 8.81,-10.4 0,-5.17 -3.7,-9.53 -8.81,-10.38 h -0.08 v -1.78 l 0.11,0.02 c 6,0.87 10.53,6.09 10.53,12.15 0,6.06 -4.52,11.28 -10.53,12.15 L 87.49,45 Z m 0.2,-1.6 v 1.37 c 5.85,-0.9 10.24,-6.01 10.24,-11.93 0,-5.92 -4.39,-11.03 -10.24,-11.93 v 1.37 c 5.16,0.9 8.89,5.33 8.89,10.57 0,5.24 -3.73,9.67 -8.89,10.57 z"
         id="path13"
         style="fill:#0054c0;stroke-width:0px" />
    </g>
    <g
       id="g15"
       transform="translate(47.84,48.76)">
      <path
         class="cls-4"
         d="m 87.59,25.51 v 1.6 c 2.45,0.75 4.23,3.03 4.23,5.72 0,2.69 -1.78,4.97 -4.23,5.72 v 1.6 c 3.31,-0.79 5.78,-3.77 5.78,-7.32 0,-3.55 -2.47,-6.53 -5.78,-7.32 z"
         id="path14"
         style="fill:#0054c0;stroke-width:0px" />
      <path
         class="cls-4"
         d="m 87.49,40.27 v -1.8 l 0.07,-0.02 c 2.45,-0.75 4.16,-3.06 4.16,-5.62 0,-2.56 -1.71,-4.87 -4.16,-5.62 l -0.07,-0.02 v -1.8 l 0.12,0.03 c 3.45,0.83 5.86,3.87 5.86,7.41 0,3.54 -2.41,6.59 -5.86,7.42 l -0.12,0.03 z m 0.2,-1.65 v 1.4 c 3.29,-0.85 5.58,-3.78 5.58,-7.19 0,-3.41 -2.29,-6.34 -5.58,-7.19 v 1.4 c 2.5,0.8 4.23,3.17 4.23,5.79 0,2.62 -1.74,4.99 -4.23,5.79 z"
         id="path15"
         style="fill:#0054c0;stroke-width:0px" />
    </g>
  </g>
</svg>
