<?xml version="1.0" encoding="UTF-8"?>
<!-- Generator: Adobe Illustrator 28.3.0, SVG Export Plug-In . SVG Version: 6.00 Build 0)  -->
<svg width="76.036" height="45.61" version="1.1" viewBox="0 0 76.036 45.61" xml:space="preserve" xmlns="http://www.w3.org/2000/svg" xmlns:xlink="http://www.w3.org/1999/xlink"><defs>
			
			
			
		<clipPath id="clipPath487"><use xlink:href="#SVGID_00000033331135794361303670000014423385474915470989_"/></clipPath><clipPath id="clipPath488"><use xlink:href="#SVGID_00000033331135794361303670000014423385474915470989_"/></clipPath><clipPath id="clipPath489"><use xlink:href="#SVGID_00000033331135794361303670000014423385474915470989_"/></clipPath></defs>
<style type="text/css">
	.st0{display:none;}
	.st1{opacity:0.54;}
	.st2{display:inline;}
	.st3{fill:#FFFFFF;stroke:#C4AD07;stroke-width:2;stroke-miterlimit:10;}
	.st4{fill:#C4AD07;stroke:#C4AD07;stroke-width:2;stroke-miterlimit:10;}
	.st5{fill:#FFFFFF;stroke:#C4AD07;stroke-width:2;stroke-miterlimit:5;}
	.st6{fill:#C4AD07;stroke:#C4AD07;stroke-width:2;stroke-linecap:square;stroke-miterlimit:10;}
	.st7{fill:none;stroke:#C4AD07;stroke-width:2;stroke-linecap:square;stroke-miterlimit:10;}
	.st8{fill:none;stroke:#C4AD07;stroke-miterlimit:10;}
	.st9{fill:#FFFFFF;stroke:#C4AD07;stroke-miterlimit:10;}
	.st10{fill:#C4AD07;}
	.st11{fill:#FFFFFF;}
	.st12{display:none;opacity:0.51;}
	.st13{display:inline;fill:#1D1D1B;}
	.st14{fill:#F8DA08;}
	.st15{fill:#FFED00;}
	.st16{display:none;fill:#FFFFFF;}
	.st17{clip-path:url(#SVGID_00000010283523414810270450000012911656120608637880_);}
	.st18{clip-path:url(#SVGID_00000142135346020091551950000005392343559471507091_);}
	.st19{fill:#29235C;}
	.st20{fill:#FFFFFF;stroke:#29235C;stroke-width:2;stroke-miterlimit:10;}
	.st21{opacity:0.51;}
	.st22{fill:#1D1D1B;}
	.st23{clip-path:url(#SVGID_00000155825682885664043750000002859071633342244229_);}
	.st24{clip-path:url(#SVGID_00000077283319989184724330000011843160099161139856_);}
	.st25{clip-path:url(#SVGID_00000121252471939053709930000017378815625575193759_);}
	.st26{clip-path:url(#SVGID_00000111157414570567742990000012749940920283759507_);}
	.st27{display:none;clip-path:url(#SVGID_00000003103974065350325950000015383360709951536561_);}
	.st28{fill:none;stroke:#C4AD07;stroke-width:0.5;stroke-miterlimit:10;}
	.st29{clip-path:url(#SVGID_00000067953131237600105890000018333613644451528864_);}
	.st30{display:none;clip-path:url(#SVGID_00000062897193407129400790000009821227312906852494_);}
	
		.st31{clip-path:url(#SVGID_00000067953131237600105890000018333613644451528864_);fill:none;stroke:#C4AD07;stroke-width:1.7;stroke-miterlimit:10;}
	.st32{fill:none;stroke:#C4AD07;stroke-width:1.7;stroke-miterlimit:10;}
	.st33{fill:#C4AD07;stroke:#C4AD07;stroke-miterlimit:10;}
	.st34{clip-path:url(#SVGID_00000099656567444363693950000014009430270861402293_);}
	.st35{display:none;clip-path:url(#SVGID_00000013171889317036873870000000648304671122315948_);}
	.st36{clip-path:url(#SVGID_00000158716925091787524150000003624699550680701104_);}
	.st37{display:none;clip-path:url(#SVGID_00000030471653355761581370000016872108398648429451_);}
	.st38{clip-path:url(#SVGID_00000120530878000465254920000010437322375055300532_);}
	.st39{clip-path:url(#SVGID_00000036213205712262403160000001707729723383050128_);}
	.st40{display:none;clip-path:url(#SVGID_00000011744032212816181370000008208921577171376518_);}
	.st41{clip-path:url(#SVGID_00000062881469225723876140000006759828055672687779_);}
	.st42{display:none;clip-path:url(#SVGID_00000132775866113584050400000005848457641609603996_);}
	.st43{clip-path:url(#SVGID_00000124126737469650734420000015255661035733898920_);}
	.st44{clip-path:url(#SVGID_00000181081823849604209840000016028283531607706290_);}
	.st45{display:none;clip-path:url(#SVGID_00000009589637561101271930000014782980673385915301_);}
	.st46{clip-path:url(#SVGID_00000129888948482667277780000013635367689531850381_);}
	.st47{clip-path:url(#SVGID_00000001638695336498516900000017200048412652380063_);}
	.st48{display:none;clip-path:url(#SVGID_00000067228348587141785980000008994827617062117525_);}
	.st49{clip-path:url(#SVGID_00000042721067112453668100000012734737578081217719_);}
	.st50{display:none;clip-path:url(#SVGID_00000069393114172366983660000001496111814574734525_);}
	.st51{fill:none;stroke:#C4AD07;stroke-width:2;stroke-miterlimit:10;}
	.st52{display:inline;fill:#FFFFFF;}
	.st53{clip-path:url(#SVGID_00000119836898236624702980000004430909318502428038_);}
	.st54{display:none;clip-path:url(#SVGID_00000069389554132130524030000007760252126170573714_);}
	.st55{display:none;clip-path:url(#SVGID_00000119836898236624702980000004430909318502428038_);}
	.st56{display:inline;fill:#C4AD07;}
	.st57{clip-path:url(#SVGID_00000121971834098345418480000006128636960522116017_);}
	.st58{clip-path:url(#SVGID_00000000204786281564958610000005477139806989263237_);}
	.st59{display:none;clip-path:url(#SVGID_00000088129312496424851780000008440641387384846245_);}
	.st60{clip-path:url(#SVGID_00000171700441702347235800000009182716224447491735_);}
	.st61{clip-path:url(#SVGID_00000111900382985472296360000016143739928977044153_);}
	.st62{display:none;clip-path:url(#SVGID_00000016760347358014958830000008664094655086325920_);}
	.st63{clip-path:url(#SVGID_00000057870986763326756680000003791952420006916799_);}
	.st64{display:none;clip-path:url(#SVGID_00000049191544630535879290000003670323252492944317_);}
	.st65{clip-path:url(#SVGID_00000011721895293710142170000006741559308408646069_);}
	.st66{clip-path:url(#SVGID_00000062159680624174932230000013169139057146772103_);}
	.st67{display:none;clip-path:url(#SVGID_00000018925886601101472310000017469343128624888496_);}
	.st68{clip-path:url(#SVGID_00000094611282258964655610000000840907096813309854_);}
	.st69{clip-path:url(#SVGID_00000097484282532978737960000002430983225803289990_);}
	.st70{display:none;clip-path:url(#SVGID_00000165932444584636428550000018313319824152198292_);}
	.st71{clip-path:url(#SVGID_00000000921150744477600750000007390252795940690313_);}
	.st72{opacity:0.63;fill:none;stroke:#C4AD07;stroke-miterlimit:10;}
	.st73{fill:none;stroke:#C4AD07;stroke-width:3;stroke-linecap:round;stroke-miterlimit:10;}
	.st74{fill:none;stroke:#FFFFFF;stroke-width:1.5;stroke-linecap:round;stroke-miterlimit:10;}
	.st75{clip-path:url(#SVGID_00000072249437098900588510000006111241719226219179_);}
	.st76{clip-path:url(#SVGID_00000158014815062876383760000010692932499671803013_);}
	.st77{display:none;clip-path:url(#SVGID_00000057128389499735330670000011032063889936842138_);}
	.st78{display:none;clip-path:url(#SVGID_00000158014815062876383760000010692932499671803013_);}
	.st79{clip-path:url(#SVGID_00000058566860693687393420000017658970259037023408_);}
	.st80{clip-path:url(#SVGID_00000039111184745760230870000007271737350926990771_);}
	.st81{clip-path:url(#SVGID_00000119106988401429050530000008940997542022984853_);}
	.st82{display:none;clip-path:url(#SVGID_00000064356032618859257890000008838073426026696354_);}
	.st83{display:none;clip-path:url(#SVGID_00000119106988401429050530000008940997542022984853_);}
	.st84{opacity:0.38;}
	.st85{clip-path:url(#SVGID_00000067958515372886767650000005037510538664525205_);}
	.st86{clip-path:url(#SVGID_00000023965103389222773810000015597227266676035725_);}
	.st87{clip-path:url(#SVGID_00000151507019041677235180000015986506164164101044_);}
	.st88{display:none;clip-path:url(#SVGID_00000089567153332154415730000011952231723241610117_);}
	.st89{display:none;clip-path:url(#SVGID_00000151507019041677235180000015986506164164101044_);}
	.st90{clip-path:url(#SVGID_00000122712280533961270640000010086069460523570863_);}
	.st91{clip-path:url(#SVGID_00000046301419481878895930000017615896570575531415_);}
	.st92{fill:none;stroke:#C4AD07;stroke-width:2;stroke-miterlimit:5;}
	.st93{fill:#FFFFFF;stroke:#C4AD07;stroke-width:2;stroke-linecap:square;stroke-miterlimit:5;}
	.st94{clip-path:url(#SVGID_00000063597682969973534540000007365362454652907147_);}
	.st95{display:none;clip-path:url(#SVGID_00000023244209080447223300000011688650956556059541_);}
	.st96{display:none;clip-path:url(#SVGID_00000063597682969973534540000007365362454652907147_);}
	.st97{clip-path:url(#SVGID_00000169550358535974518020000015481025736079312319_);}
	.st98{clip-path:url(#SVGID_00000121988397381024401250000014038720251925238454_);}
	.st99{fill:#FFFFFF;stroke:#C4AD07;stroke-width:2;stroke-linecap:square;stroke-miterlimit:10;}
	.st100{fill:#131230;stroke:#FFFFFF;stroke-width:0.1;stroke-miterlimit:10;}
	.st101{fill:#131230;}
	.st102{clip-path:url(#SVGID_00000141433300153158969290000017810833924269392785_);}
	.st103{display:none;clip-path:url(#SVGID_00000047771842902582981180000012349151813985298325_);}
	.st104{fill:#00AAE8;}
	.st105{clip-path:url(#SVGID_00000105410676344961762050000009158213252938097565_);}
	.st106{display:none;clip-path:url(#SVGID_00000132089863380406279600000001956781970132800388_);}
	.st107{clip-path:url(#SVGID_00000176737625687340552550000012013944775931017120_);}
	.st108{display:none;clip-path:url(#SVGID_00000064317103282741963100000001265608932100655804_);}
	
		.st109{clip-path:url(#SVGID_00000176737625687340552550000012013944775931017120_);fill:none;stroke:#C4AD07;stroke-width:2;stroke-miterlimit:10;}
	.st110{clip-path:url(#SVGID_00000006696002054406369060000014549210446710838707_);}
	.st111{clip-path:url(#SVGID_00000031190035926127094440000009546624942824296096_);}
	.st112{display:none;clip-path:url(#SVGID_00000138543163089461819540000015514204907116781449_);}
	
		.st113{clip-path:url(#SVGID_00000031190035926127094440000009546624942824296096_);fill:none;stroke:#C4AD07;stroke-width:2;stroke-miterlimit:10;}
	.st114{clip-path:url(#SVGID_00000118361159379906911750000006942530761868765312_);}
	.st115{clip-path:url(#SVGID_00000146486906869856268950000000558067122730896268_);}
	.st116{display:none;clip-path:url(#SVGID_00000042716224996184028550000010606753998002949556_);}
	.st117{fill:#124281;}
	.st118{clip-path:url(#SVGID_00000117637933518220622280000002583987505231318450_);}
	.st119{display:none;clip-path:url(#SVGID_00000072276044138572711230000011347679751743622528_);}
	.st120{clip-path:url(#SVGID_00000077289721664608340710000013446241947791841939_);}
	.st121{clip-path:url(#SVGID_00000178909462637082559960000016325109551980929968_);}
	.st122{display:none;clip-path:url(#SVGID_00000003815379602480561450000003866215772331128748_);}
</style>

<g transform="translate(-1.81 -3.61)">
	
		<defs>
			<rect id="SVGID_00000033331135794361303670000014423385474915470989_" x="1.81" y="1.27" width="77.9" height="57.66"/>
		</defs>
		
		<g clip-path="url(#clipPath489)">
				
					<path class="st10" d="m36.78 5.61c15.76 0.3 22.25 14.92 22.98 17.87 0.23 0.06 0.42 0.08 0.6 0.08 0.44 0 1-0.15 1.9-1.27l1.46-1.82 0.11 2.33c0.1 2.25-0.74 3.95-2.55 5.17 1.07 0.85 1.73 2.05 1.97 3.58l0.34 2.17-1.74-1.33c-0.9-0.69-1.48-0.83-1.81-0.83-0.11 0-0.21 0.02-0.3 0.05-0.03 0.01-0.05 0.02-0.08 0.03-0.89 3.18-8.01 15.57-21.48 15.57-4.86 0-9.73-1.79-14.12-5.21l-0.18-0.15-0.67-0.57 0.57-0.67 2.68-3.17c0.4-0.48 0.34-1.19-0.14-1.6l-3.94-3.32c-0.21-0.18-0.47-0.27-0.73-0.27s-0.52 0.09-0.73 0.27l-8.38 7.1c-0.02 0.02-0.05 0.03-0.08 0.03-0.06 0-0.13-0.05-0.13-0.13v-24.58c0-0.07 0.06-0.13 0.13-0.13 0.03 0 0.06 0.01 0.08 0.03l8.45 7.18c0.21 0.18 0.47 0.27 0.73 0.27s0.52-0.09 0.73-0.27l3.3-2.79c0.48-0.4 0.54-1.12 0.14-1.6l-4.33-5.13-0.56-0.66 0.67-0.57 0.21-0.18c4.62-3.58 9.77-5.48 14.9-5.48m0-2c-5.58 0-11.15 2.04-16.12 5.9-0.02 0.02-0.04 0.03-0.06 0.05l-0.21 0.18-0.68 0.57c-0.41 0.34-0.66 0.83-0.7 1.36s0.12 1.05 0.46 1.46l0.57 0.67 3.77 4.47-2.08 1.75-7.89-6.7c-0.38-0.33-0.87-0.51-1.37-0.51-1.17 0-2.13 0.95-2.13 2.13v24.59c0 1.17 0.95 2.13 2.13 2.13 0.5 0 0.99-0.18 1.37-0.51l7.82-6.63 2.71 2.29-2.12 2.51-0.57 0.68c-0.34 0.41-0.51 0.93-0.46 1.46s0.3 1.02 0.7 1.36l0.67 0.57 0.18 0.15c0.02 0.02 0.04 0.03 0.06 0.05 4.74 3.68 10.04 5.63 15.35 5.63 12.33 0 20.09-9.74 22.64-15.08l1.55 1.19c0.36 0.27 0.78 0.41 1.21 0.41 0.35 0 0.71-0.09 1.02-0.28 0.7-0.42 1.08-1.22 0.95-2.03l-0.34-2.17c-0.18-1.18-0.56-2.22-1.14-3.11 1.24-1.46 1.83-3.3 1.74-5.42l-0.11-2.33c-0.04-0.83-0.59-1.55-1.38-1.81-0.2-0.07-0.41-0.1-0.62-0.1-0.6 0-1.17 0.27-1.56 0.75l-1.24 1.54c-2.36-5.68-9.65-16.89-24.08-17.17h-0.04z"/>
				
				
					<path class="st10" d="m52.39 39.86c-6.23 5.25-15.22 5.09-21.24 0l-3.25-2.75-3.43 4.06 0.18 0.15c11.59 9.01 24.34 5.35 30.56-3.43l-0.35-0.71c-0.71 0.92-1.52 1.82-2.47 2.68z"/>
					<path class="st14" d="m31.15 14.68c8.47-6.59 17.62-4.19 22.84 1.69l3.84 3.52c-8.71-14.75-23.12-17.64-35.38-8.1l-0.19 0.16 5.04 5.98z"/>
					<path class="st14" d="m32.83 14.97-10.36 8.73c-0.27 0.23-0.67 0.23-0.94 0l-8.29-7.11v21.3l8.25-7.08c0.27-0.23 0.67-0.23 0.94 0l10.4 8.77c5.88 4.97 14.89 5.17 20.98 0.04 15.77-14.42-4.12-37.77-20.98-24.65z"/>
					
						<defs>
							<path id="SVGID_00000067233402602189078090000006941839275662890400_" d="m32.83 14.97-10.37 8.75c-0.26 0.22-0.65 0.22-0.92 0l-8.3-7.12v21.3l8.26-7.09c0.26-0.23 0.65-0.23 0.92 0l10.41 8.78c5.88 4.97 14.67 5.35 20.76 0.22 15.77-14.43-3.9-37.96-20.76-24.84z"/>
						</defs>
						<clipPath id="SVGID_00000146484357823057194410000016366290681681355956_">
							<use xlink:href="#SVGID_00000067233402602189078090000006941839275662890400_"/>
						</clipPath>
						<g clip-path="url(#SVGID_00000146484357823057194410000016366290681681355956_)">
							<defs>
								<path id="SVGID_00000072962635422245147650000000789720312361578127_" d="m42.61 26.96-0.89 0.55-7.69 2.35-10.41-1.86-10.22-4.66-4.76 3.93-1.16 4.58 2.18 9.15 26.09 8 16.92-4.72c0-0.01-7.49-8.6-10.06-17.32z"/>
							</defs>
							<use fill="#c4ad07" xlink:href="#SVGID_00000072962635422245147650000000789720312361578127_"/>
							<clipPath id="SVGID_00000118362750948717731200000006486958096048371638_">
								<use xlink:href="#SVGID_00000072962635422245147650000000789720312361578127_"/>
							</clipPath>
							<g clip-path="url(#SVGID_00000118362750948717731200000006486958096048371638_)" display="none">
								<g class="st2">
									
										
											<path class="st28" d="m1.33 16.43c0 0.84 0.68 1.53 1.53 1.53s1.53-0.68 1.53-1.53"/>
											<path class="st28" d="m4.38 16.43c0 0.84 0.68 1.53 1.53 1.53s1.53-0.68 1.53-1.53"/>
											<path class="st28" d="m7.43 16.43c0 0.84 0.68 1.53 1.53 1.53s1.53-0.68 1.53-1.53"/>
											<path class="st28" d="m10.48 16.43c0 0.84 0.68 1.53 1.53 1.53s1.53-0.68 1.53-1.53"/>
											<path class="st28" d="m13.54 16.43c0 0.84 0.68 1.53 1.53 1.53s1.53-0.68 1.53-1.53"/>
											<path class="st28" d="m16.59 16.43c0 0.84 0.68 1.53 1.53 1.53s1.53-0.68 1.53-1.53"/>
										
										
											<path class="st28" d="m19.64 16.43c0 0.84 0.68 1.53 1.53 1.53s1.53-0.68 1.53-1.53"/>
											<path class="st28" d="m22.69 16.43c0 0.84 0.68 1.53 1.53 1.53s1.53-0.68 1.53-1.53"/>
											<path class="st28" d="m25.74 16.43c0 0.84 0.68 1.53 1.53 1.53s1.53-0.68 1.53-1.53"/>
											<path class="st28" d="m28.8 16.43c0 0.84 0.68 1.53 1.53 1.53s1.53-0.68 1.53-1.53"/>
											<path class="st28" d="m31.85 16.43c0 0.84 0.68 1.53 1.53 1.53s1.53-0.68 1.53-1.53"/>
											<path class="st28" d="m34.9 16.43c0 0.84 0.68 1.53 1.53 1.53s1.53-0.68 1.53-1.53"/>
										
									
									
										
											<path class="st28" d="m2.85 17.96c0 0.84 0.68 1.53 1.53 1.53s1.52-0.69 1.52-1.53"/>
											<path class="st28" d="m5.9 17.96c0 0.84 0.68 1.53 1.53 1.53s1.53-0.68 1.53-1.53"/>
											<path class="st28" d="m8.96 17.96c0 0.84 0.68 1.53 1.53 1.53s1.53-0.68 1.53-1.53"/>
											<path class="st28" d="m12.01 17.96c0 0.84 0.68 1.53 1.53 1.53s1.53-0.68 1.53-1.53"/>
											<path class="st28" d="m15.06 17.96c0 0.84 0.68 1.53 1.53 1.53s1.53-0.68 1.53-1.53"/>
											<path class="st28" d="m18.11 17.96c0 0.84 0.68 1.53 1.53 1.53s1.53-0.68 1.53-1.53"/>
										
										
											<path class="st28" d="m21.17 17.96c0 0.84 0.68 1.53 1.53 1.53s1.53-0.68 1.53-1.53"/>
											<path class="st28" d="m24.22 17.96c0 0.84 0.68 1.53 1.53 1.53s1.53-0.68 1.53-1.53"/>
											<path class="st28" d="m27.27 17.96c0 0.84 0.68 1.53 1.53 1.53s1.53-0.68 1.53-1.53"/>
											<path class="st28" d="m30.32 17.96c0 0.84 0.68 1.53 1.53 1.53 0.84 0 1.53-0.68 1.53-1.53"/>
											<path class="st28" d="m33.37 17.96c0 0.84 0.68 1.53 1.53 1.53s1.53-0.68 1.53-1.53"/>
										
									
									
										
											<path class="st28" d="m1.33 19.49c0 0.84 0.68 1.53 1.53 1.53s1.53-0.68 1.53-1.53"/>
											<path class="st28" d="m4.38 19.49c0 0.84 0.68 1.53 1.53 1.53s1.53-0.68 1.53-1.53"/>
											<path class="st28" d="m7.43 19.49c0 0.84 0.68 1.53 1.53 1.53s1.53-0.68 1.53-1.53"/>
											<path class="st28" d="m10.48 19.49c0 0.84 0.68 1.53 1.53 1.53s1.53-0.68 1.53-1.53"/>
											<path class="st28" d="m13.54 19.49c0 0.84 0.68 1.53 1.53 1.53s1.53-0.68 1.53-1.53"/>
											<path class="st28" d="m16.59 19.49c0 0.84 0.68 1.53 1.53 1.53s1.53-0.68 1.53-1.53"/>
										
										
											<path class="st28" d="m19.64 19.49c0 0.84 0.68 1.53 1.53 1.53s1.53-0.68 1.53-1.53"/>
											<path class="st28" d="m22.69 19.49c0 0.84 0.68 1.53 1.53 1.53s1.53-0.68 1.53-1.53"/>
											<path class="st28" d="m25.74 19.49c0 0.84 0.68 1.53 1.53 1.53s1.53-0.68 1.53-1.53"/>
											<path class="st28" d="m28.8 19.49c0 0.84 0.68 1.53 1.53 1.53s1.53-0.68 1.53-1.53"/>
											<path class="st28" d="m31.85 19.49c0 0.84 0.68 1.53 1.53 1.53s1.53-0.68 1.53-1.53"/>
											<path class="st28" d="m34.9 19.49c0 0.84 0.68 1.53 1.53 1.53s1.53-0.68 1.53-1.53"/>
										
									
									
										
											<path class="st28" d="m2.85 21.01c0 0.84 0.68 1.53 1.53 1.53s1.53-0.68 1.53-1.53"/>
											<path class="st28" d="m5.9 21.01c0 0.84 0.68 1.53 1.53 1.53s1.53-0.68 1.53-1.53"/>
											<path class="st28" d="m8.96 21.01c0 0.84 0.68 1.53 1.53 1.53s1.53-0.68 1.53-1.53"/>
											<path class="st28" d="m12.01 21.01c0 0.84 0.68 1.53 1.53 1.53s1.53-0.68 1.53-1.53"/>
											<path class="st28" d="m15.06 21.01c0 0.84 0.68 1.53 1.53 1.53s1.53-0.68 1.53-1.53"/>
											<path class="st28" d="m18.11 21.01c0 0.84 0.68 1.53 1.53 1.53s1.53-0.68 1.53-1.53"/>
										
										
											<path class="st28" d="m21.17 21.01c0 0.84 0.68 1.53 1.53 1.53s1.53-0.68 1.53-1.53"/>
											<path class="st28" d="m24.22 21.01c0 0.84 0.68 1.53 1.53 1.53s1.53-0.68 1.53-1.53"/>
											<path class="st28" d="m27.27 21.01c0 0.84 0.68 1.53 1.53 1.53s1.53-0.68 1.53-1.53"/>
											<path class="st28" d="m30.32 21.01c0 0.84 0.68 1.53 1.53 1.53 0.84 0 1.53-0.68 1.53-1.53"/>
											<path class="st28" d="m33.37 21.01c0 0.84 0.68 1.53 1.53 1.53s1.53-0.68 1.53-1.53"/>
										
									
									
										
											<path class="st28" d="m1.33 22.54c0 0.84 0.68 1.53 1.53 1.53s1.53-0.68 1.53-1.53"/>
											<path class="st28" d="m4.38 22.54c0 0.84 0.68 1.53 1.53 1.53s1.53-0.68 1.53-1.53"/>
											<path class="st28" d="m7.43 22.54c0 0.84 0.68 1.53 1.53 1.53s1.53-0.68 1.53-1.53"/>
											<path class="st28" d="m10.48 22.54c0 0.84 0.68 1.53 1.53 1.53s1.53-0.68 1.53-1.53"/>
											<path class="st28" d="m13.54 22.54c0 0.84 0.68 1.53 1.53 1.53s1.53-0.68 1.53-1.53"/>
											<path class="st28" d="m16.59 22.54c0 0.84 0.68 1.53 1.53 1.53s1.53-0.68 1.53-1.53"/>
										
										
											<path class="st28" d="m19.64 22.54c0 0.84 0.68 1.53 1.53 1.53s1.53-0.68 1.53-1.53"/>
											<path class="st28" d="m22.69 22.54c0 0.84 0.68 1.53 1.53 1.53s1.53-0.68 1.53-1.53"/>
											<path class="st28" d="m25.74 22.54c0 0.84 0.68 1.53 1.53 1.53s1.53-0.68 1.53-1.53"/>
											<path class="st28" d="m28.8 22.54c0 0.84 0.68 1.53 1.53 1.53s1.53-0.68 1.53-1.53"/>
											<path class="st28" d="m31.85 22.54c0 0.84 0.68 1.53 1.53 1.53s1.53-0.68 1.53-1.53"/>
											<path class="st28" d="m34.9 22.54c0 0.84 0.68 1.53 1.53 1.53s1.53-0.68 1.53-1.53"/>
										
									
									
										
											<path class="st28" d="m2.85 24.07c0 0.84 0.68 1.53 1.53 1.53s1.53-0.68 1.53-1.53"/>
											<path class="st28" d="m5.9 24.07c0 0.84 0.68 1.53 1.53 1.53s1.53-0.68 1.53-1.53"/>
											<path class="st28" d="m8.96 24.07c0 0.84 0.68 1.53 1.53 1.53s1.53-0.68 1.53-1.53"/>
											<path class="st28" d="m12.01 24.07c0 0.84 0.68 1.53 1.53 1.53s1.53-0.68 1.53-1.53"/>
											<path class="st28" d="m15.06 24.07c0 0.84 0.68 1.53 1.53 1.53s1.53-0.68 1.53-1.53"/>
											<path class="st28" d="m18.11 24.07c0 0.84 0.68 1.53 1.53 1.53s1.53-0.68 1.53-1.53"/>
										
										
											<path class="st28" d="m21.17 24.07c0 0.84 0.68 1.53 1.53 1.53s1.53-0.68 1.53-1.53"/>
											<path class="st28" d="m24.22 24.07c0 0.84 0.68 1.53 1.53 1.53s1.53-0.68 1.53-1.53"/>
											<path class="st28" d="m27.27 24.07c0 0.84 0.68 1.53 1.53 1.53s1.53-0.68 1.53-1.53"/>
											<path class="st28" d="m30.32 24.07c0 0.84 0.68 1.53 1.53 1.53 0.84 0 1.53-0.68 1.53-1.53"/>
											<path class="st28" d="m33.37 24.07c0 0.84 0.68 1.53 1.53 1.53s1.53-0.68 1.53-1.53"/>
										
									
									
										
											<path class="st28" d="m1.33 25.59c0 0.84 0.68 1.53 1.53 1.53s1.53-0.68 1.53-1.53"/>
											<path class="st28" d="m4.38 25.59c0 0.84 0.68 1.53 1.53 1.53s1.53-0.68 1.53-1.53"/>
											<path class="st28" d="m7.43 25.59c0 0.84 0.68 1.53 1.53 1.53s1.53-0.68 1.53-1.53"/>
											<path class="st28" d="m10.48 25.59c0 0.84 0.68 1.53 1.53 1.53s1.53-0.68 1.53-1.53"/>
											<path class="st28" d="m13.54 25.59c0 0.84 0.68 1.53 1.53 1.53s1.53-0.68 1.53-1.53"/>
											<path class="st28" d="m16.59 25.59c0 0.84 0.68 1.53 1.53 1.53s1.53-0.68 1.53-1.53"/>
										
										
											<path class="st28" d="m19.64 25.59c0 0.84 0.68 1.53 1.53 1.53s1.53-0.68 1.53-1.53"/>
											<path class="st28" d="m22.69 25.59c0 0.84 0.68 1.53 1.53 1.53s1.53-0.68 1.53-1.53"/>
											<path class="st28" d="m25.74 25.59c0 0.84 0.68 1.53 1.53 1.53s1.53-0.68 1.53-1.53"/>
											<path class="st28" d="m28.8 25.59c0 0.84 0.68 1.53 1.53 1.53s1.53-0.68 1.53-1.53"/>
											<path class="st28" d="m31.85 25.59c0 0.84 0.68 1.53 1.53 1.53s1.53-0.68 1.53-1.53"/>
											<path class="st28" d="m34.9 25.59c0 0.84 0.68 1.53 1.53 1.53s1.53-0.68 1.53-1.53"/>
										
									
									
										
											<path class="st28" d="m2.85 27.12c0 0.84 0.68 1.53 1.53 1.53s1.53-0.68 1.53-1.53"/>
											<path class="st28" d="m5.9 27.12c0 0.84 0.68 1.53 1.53 1.53s1.53-0.68 1.53-1.53"/>
											<path class="st28" d="m8.96 27.12c0 0.84 0.68 1.53 1.53 1.53s1.53-0.68 1.53-1.53"/>
											<path class="st28" d="m12.01 27.12c0 0.84 0.68 1.53 1.53 1.53s1.53-0.68 1.53-1.53"/>
											<path class="st28" d="m15.06 27.12c0 0.84 0.68 1.53 1.53 1.53s1.53-0.68 1.53-1.53"/>
											<path class="st28" d="m18.11 27.12c0 0.84 0.68 1.53 1.53 1.53s1.53-0.68 1.53-1.53"/>
										
										
											<path class="st28" d="m21.17 27.12c0 0.84 0.68 1.53 1.53 1.53s1.53-0.68 1.53-1.53"/>
											<path class="st28" d="m24.22 27.12c0 0.84 0.68 1.53 1.53 1.53s1.53-0.68 1.53-1.53"/>
											<path class="st28" d="m27.27 27.12c0 0.84 0.68 1.53 1.53 1.53s1.53-0.68 1.53-1.53"/>
											<path class="st28" d="m30.32 27.12c0 0.84 0.68 1.53 1.53 1.53 0.84 0 1.53-0.68 1.53-1.53"/>
											<path class="st28" d="m33.37 27.12c0 0.84 0.68 1.53 1.53 1.53s1.53-0.68 1.53-1.53"/>
										
									
									
										
											<path class="st28" d="m1.33 28.64c0 0.84 0.68 1.53 1.53 1.53s1.53-0.68 1.53-1.53"/>
											<path class="st28" d="m4.38 28.64c0 0.84 0.68 1.53 1.53 1.53s1.53-0.68 1.53-1.53"/>
											<path class="st28" d="m7.43 28.64c0 0.84 0.68 1.53 1.53 1.53s1.53-0.68 1.53-1.53"/>
											<path class="st28" d="m10.48 28.64c0 0.84 0.68 1.53 1.53 1.53s1.53-0.68 1.53-1.53"/>
											<path class="st28" d="m13.54 28.64c0 0.84 0.68 1.53 1.53 1.53s1.53-0.68 1.53-1.53"/>
											<path class="st28" d="m16.59 28.64c0 0.84 0.68 1.53 1.53 1.53s1.53-0.68 1.53-1.53"/>
										
										
											<path class="st28" d="m19.64 28.64c0 0.84 0.68 1.53 1.53 1.53s1.53-0.68 1.53-1.53"/>
											<path class="st28" d="m22.69 28.64c0 0.84 0.68 1.53 1.53 1.53s1.53-0.68 1.53-1.53"/>
											<path class="st28" d="m25.74 28.64c0 0.84 0.68 1.53 1.53 1.53s1.53-0.68 1.53-1.53"/>
											<path class="st28" d="m28.8 28.64c0 0.84 0.68 1.53 1.53 1.53s1.53-0.68 1.53-1.53"/>
											<path class="st28" d="m31.85 28.64c0 0.84 0.68 1.53 1.53 1.53s1.53-0.68 1.53-1.53"/>
											<path class="st28" d="m34.9 28.64c0 0.84 0.68 1.53 1.53 1.53s1.53-0.68 1.53-1.53"/>
										
									
									
										
											<path class="st28" d="m2.85 30.17c0 0.84 0.68 1.53 1.53 1.53s1.53-0.68 1.53-1.53"/>
											<path class="st28" d="m5.9 30.17c0 0.84 0.68 1.53 1.53 1.53s1.53-0.68 1.53-1.53"/>
											<path class="st28" d="m8.96 30.17c0 0.84 0.68 1.53 1.53 1.53s1.53-0.68 1.53-1.53"/>
											<path class="st28" d="m12.01 30.17c0 0.84 0.68 1.53 1.53 1.53s1.53-0.68 1.53-1.53"/>
											<path class="st28" d="m15.06 30.17c0 0.84 0.68 1.53 1.53 1.53s1.53-0.68 1.53-1.53"/>
											<path class="st28" d="m18.11 30.17c0 0.84 0.68 1.53 1.53 1.53s1.53-0.68 1.53-1.53"/>
										
										
											<path class="st28" d="m21.17 30.17c0 0.84 0.68 1.53 1.53 1.53s1.53-0.68 1.53-1.53"/>
											<path class="st28" d="m24.22 30.17c0 0.84 0.68 1.53 1.53 1.53s1.53-0.68 1.53-1.53"/>
											<path class="st28" d="m27.27 30.17c0 0.84 0.68 1.53 1.53 1.53s1.53-0.68 1.53-1.53"/>
											<path class="st28" d="m30.32 30.17c0 0.84 0.68 1.53 1.53 1.53 0.84 0 1.53-0.68 1.53-1.53"/>
											<path class="st28" d="m33.37 30.17c0 0.84 0.68 1.53 1.53 1.53s1.53-0.68 1.53-1.53"/>
										
									
								
								
									
										
											<path class="st28" d="m1.33 31.7c0 0.84 0.68 1.53 1.53 1.53s1.53-0.68 1.53-1.53"/>
											<path class="st28" d="m4.38 31.7c0 0.84 0.68 1.53 1.53 1.53s1.53-0.68 1.53-1.53"/>
											<path class="st28" d="m7.43 31.7c0 0.84 0.68 1.53 1.53 1.53s1.53-0.68 1.53-1.53"/>
											<path class="st28" d="m10.48 31.7c0 0.84 0.68 1.53 1.53 1.53s1.53-0.68 1.53-1.53"/>
											<path class="st28" d="m13.54 31.7c0 0.84 0.68 1.53 1.53 1.53s1.53-0.68 1.53-1.53"/>
											<path class="st28" d="m16.59 31.7c0 0.84 0.68 1.53 1.53 1.53s1.53-0.68 1.53-1.53"/>
										
										
											<path class="st28" d="m19.64 31.7c0 0.84 0.68 1.53 1.53 1.53s1.53-0.68 1.53-1.53"/>
											<path class="st28" d="m22.69 31.7c0 0.84 0.68 1.53 1.53 1.53s1.53-0.68 1.53-1.53"/>
											<path class="st28" d="m25.74 31.7c0 0.84 0.68 1.53 1.53 1.53s1.53-0.68 1.53-1.53"/>
											<path class="st28" d="m28.8 31.7c0 0.84 0.68 1.53 1.53 1.53s1.53-0.68 1.53-1.53"/>
											<path class="st28" d="m31.85 31.7c0 0.84 0.68 1.53 1.53 1.53s1.53-0.68 1.53-1.53"/>
											<path class="st28" d="m34.9 31.7c0 0.84 0.68 1.53 1.53 1.53s1.53-0.68 1.53-1.53"/>
										
									
									
										
											<path class="st28" d="m2.85 33.22c0 0.84 0.68 1.53 1.53 1.53s1.53-0.68 1.53-1.53"/>
											<path class="st28" d="m5.9 33.22c0 0.84 0.68 1.53 1.53 1.53s1.53-0.68 1.53-1.53"/>
											<path class="st28" d="m8.96 33.22c0 0.84 0.68 1.53 1.53 1.53s1.53-0.68 1.53-1.53"/>
											<path class="st28" d="m12.01 33.22c0 0.84 0.68 1.53 1.53 1.53s1.53-0.68 1.53-1.53"/>
											<path class="st28" d="m15.06 33.22c0 0.84 0.68 1.53 1.53 1.53s1.53-0.68 1.53-1.53"/>
											<path class="st28" d="m18.11 33.22c0 0.84 0.68 1.53 1.53 1.53s1.53-0.68 1.53-1.53"/>
										
										
											<path class="st28" d="m21.17 33.22c0 0.84 0.68 1.53 1.53 1.53s1.53-0.68 1.53-1.53"/>
											<path class="st28" d="m24.22 33.22c0 0.84 0.68 1.53 1.53 1.53s1.53-0.68 1.53-1.53"/>
											<path class="st28" d="m27.27 33.22c0 0.84 0.68 1.53 1.53 1.53s1.53-0.68 1.53-1.53"/>
											<path class="st28" d="m30.32 33.22c0 0.84 0.68 1.53 1.53 1.53 0.84 0 1.53-0.68 1.53-1.53"/>
											<path class="st28" d="m33.37 33.22c0 0.84 0.68 1.53 1.53 1.53s1.53-0.68 1.53-1.53"/>
										
									
									
										
											<path class="st28" d="m1.33 34.75c0 0.84 0.68 1.53 1.53 1.53s1.53-0.68 1.53-1.53"/>
											<path class="st28" d="m4.38 34.75c0 0.84 0.68 1.53 1.53 1.53s1.53-0.68 1.53-1.53"/>
											<path class="st28" d="m7.43 34.75c0 0.84 0.68 1.53 1.53 1.53s1.53-0.68 1.53-1.53"/>
											<path class="st28" d="m10.48 34.75c0 0.84 0.68 1.53 1.53 1.53s1.53-0.68 1.53-1.53"/>
											<path class="st28" d="m13.54 34.75c0 0.84 0.68 1.53 1.53 1.53s1.53-0.68 1.53-1.53"/>
											<path class="st28" d="m16.59 34.75c0 0.84 0.68 1.53 1.53 1.53s1.53-0.68 1.53-1.53"/>
										
										
											<path class="st28" d="m19.64 34.75c0 0.84 0.68 1.53 1.53 1.53s1.53-0.68 1.53-1.53"/>
											<path class="st28" d="m22.69 34.75c0 0.84 0.68 1.53 1.53 1.53s1.53-0.68 1.53-1.53"/>
											<path class="st28" d="m25.74 34.75c0 0.84 0.68 1.53 1.53 1.53s1.53-0.68 1.53-1.53"/>
											<path class="st28" d="m28.8 34.75c0 0.84 0.68 1.53 1.53 1.53s1.53-0.68 1.53-1.53"/>
											<path class="st28" d="m31.85 34.75c0 0.84 0.68 1.53 1.53 1.53s1.53-0.68 1.53-1.53"/>
											<path class="st28" d="m34.9 34.75c0 0.84 0.68 1.53 1.53 1.53s1.53-0.68 1.53-1.53"/>
										
									
									
										
											<path class="st28" d="m2.85 36.27c0 0.84 0.68 1.53 1.53 1.53s1.53-0.68 1.53-1.53"/>
											<path class="st28" d="m5.9 36.27c0 0.84 0.68 1.53 1.53 1.53s1.53-0.68 1.53-1.53"/>
											<path class="st28" d="m8.96 36.27c0 0.84 0.68 1.53 1.53 1.53s1.53-0.68 1.53-1.53"/>
											<path class="st28" d="m12.01 36.27c0 0.84 0.68 1.53 1.53 1.53s1.53-0.68 1.53-1.53"/>
											<path class="st28" d="m15.06 36.27c0 0.84 0.68 1.53 1.53 1.53s1.53-0.68 1.53-1.53"/>
											<path class="st28" d="m18.11 36.27c0 0.84 0.68 1.53 1.53 1.53s1.53-0.68 1.53-1.53"/>
										
										
											<path class="st28" d="m21.17 36.27c0 0.84 0.68 1.53 1.53 1.53s1.53-0.68 1.53-1.53"/>
											<path class="st28" d="m24.22 36.27c0 0.84 0.68 1.53 1.53 1.53s1.53-0.68 1.53-1.53"/>
											<path class="st28" d="m27.27 36.27c0 0.84 0.68 1.53 1.53 1.53s1.53-0.68 1.53-1.53"/>
											<path class="st28" d="m30.32 36.27c0 0.84 0.68 1.53 1.53 1.53 0.84 0 1.53-0.68 1.53-1.53"/>
											<path class="st28" d="m33.37 36.27c0 0.84 0.68 1.53 1.53 1.53s1.53-0.68 1.53-1.53"/>
										
									
									
										
											<path class="st28" d="m1.33 37.8c0 0.84 0.68 1.53 1.53 1.53s1.53-0.68 1.53-1.53"/>
											<path class="st28" d="m4.38 37.8c0 0.84 0.68 1.53 1.53 1.53s1.53-0.68 1.53-1.53"/>
											<path class="st28" d="m7.43 37.8c0 0.84 0.68 1.53 1.53 1.53s1.53-0.68 1.53-1.53"/>
											<path class="st28" d="m10.48 37.8c0 0.84 0.68 1.53 1.53 1.53s1.53-0.68 1.53-1.53"/>
											<path class="st28" d="m13.54 37.8c0 0.84 0.68 1.53 1.53 1.53s1.53-0.68 1.53-1.53"/>
											<path class="st28" d="m16.59 37.8c0 0.84 0.68 1.53 1.53 1.53s1.53-0.68 1.53-1.53"/>
										
										
											<path class="st28" d="m19.64 37.8c0 0.84 0.68 1.53 1.53 1.53s1.53-0.68 1.53-1.53"/>
											<path class="st28" d="m22.69 37.8c0 0.84 0.68 1.53 1.53 1.53s1.53-0.68 1.53-1.53"/>
											<path class="st28" d="m25.74 37.8c0 0.84 0.68 1.53 1.53 1.53s1.53-0.68 1.53-1.53"/>
											<path class="st28" d="m28.8 37.8c0 0.84 0.68 1.53 1.53 1.53s1.53-0.68 1.53-1.53"/>
											<path class="st28" d="m31.85 37.8c0 0.84 0.68 1.53 1.53 1.53s1.53-0.68 1.53-1.53"/>
											<path class="st28" d="m34.9 37.8c0 0.84 0.68 1.53 1.53 1.53s1.53-0.68 1.53-1.53"/>
										
									
									
										
											<path class="st28" d="m2.85 39.33c0 0.84 0.68 1.53 1.53 1.53s1.53-0.68 1.53-1.53"/>
											<path class="st28" d="m5.9 39.33c0 0.84 0.68 1.53 1.53 1.53s1.53-0.68 1.53-1.53"/>
											<path class="st28" d="m8.96 39.33c0 0.84 0.68 1.53 1.53 1.53s1.53-0.68 1.53-1.53"/>
											<path class="st28" d="m12.01 39.33c0 0.84 0.68 1.53 1.53 1.53s1.53-0.68 1.53-1.53"/>
											<path class="st28" d="m15.06 39.33c0 0.84 0.68 1.53 1.53 1.53s1.53-0.68 1.53-1.53"/>
											<path class="st28" d="m18.11 39.33c0 0.84 0.68 1.53 1.53 1.53s1.53-0.68 1.53-1.53"/>
										
										
											<path class="st28" d="m21.17 39.33c0 0.84 0.68 1.53 1.53 1.53s1.53-0.68 1.53-1.53"/>
											<path class="st28" d="m24.22 39.33c0 0.84 0.68 1.53 1.53 1.53s1.53-0.68 1.53-1.53"/>
											<path class="st28" d="m27.27 39.33c0 0.84 0.68 1.53 1.53 1.53s1.53-0.68 1.53-1.53"/>
											<path class="st28" d="m30.32 39.33c0 0.84 0.68 1.53 1.53 1.53 0.84 0 1.53-0.68 1.53-1.53"/>
											<path class="st28" d="m33.37 39.33c0 0.84 0.68 1.53 1.53 1.53s1.53-0.68 1.53-1.53"/>
										
									
									
										
											<path class="st28" d="m1.33 40.85c0 0.84 0.68 1.53 1.53 1.53s1.53-0.68 1.53-1.53"/>
											<path class="st28" d="m4.38 40.85c0 0.84 0.68 1.53 1.53 1.53s1.53-0.68 1.53-1.53"/>
											<path class="st28" d="m7.43 40.85c0 0.84 0.68 1.53 1.53 1.53s1.53-0.68 1.53-1.53"/>
											<path class="st28" d="m10.48 40.85c0 0.84 0.68 1.53 1.53 1.53s1.53-0.68 1.53-1.53"/>
											<path class="st28" d="m13.54 40.85c0 0.84 0.68 1.53 1.53 1.53s1.53-0.68 1.53-1.53"/>
											<path class="st28" d="m16.59 40.85c0 0.84 0.68 1.53 1.53 1.53s1.53-0.68 1.53-1.53"/>
										
										
											<path class="st28" d="m19.64 40.85c0 0.84 0.68 1.53 1.53 1.53s1.53-0.68 1.53-1.53"/>
											<path class="st28" d="m22.69 40.85c0 0.84 0.68 1.53 1.53 1.53s1.53-0.68 1.53-1.53"/>
											<path class="st28" d="m25.74 40.85c0 0.84 0.68 1.53 1.53 1.53s1.53-0.68 1.53-1.53"/>
											<path class="st28" d="m28.8 40.85c0 0.84 0.68 1.53 1.53 1.53s1.53-0.68 1.53-1.53"/>
											<path class="st28" d="m31.85 40.85c0 0.84 0.68 1.53 1.53 1.53s1.53-0.68 1.53-1.53"/>
											<path class="st28" d="m34.9 40.85c0 0.84 0.68 1.53 1.53 1.53s1.53-0.68 1.53-1.53"/>
										
									
									
										
											<path class="st28" d="m2.85 42.38c0 0.84 0.68 1.53 1.53 1.53s1.53-0.68 1.53-1.53"/>
											<path class="st28" d="m5.9 42.38c0 0.84 0.68 1.53 1.53 1.53s1.53-0.68 1.53-1.53"/>
											<path class="st28" d="m8.96 42.38c0 0.84 0.68 1.53 1.53 1.53s1.53-0.68 1.53-1.53"/>
											<path class="st28" d="m12.01 42.38c0 0.84 0.68 1.53 1.53 1.53s1.53-0.68 1.53-1.53"/>
											<path class="st28" d="m15.06 42.38c0 0.84 0.68 1.53 1.53 1.53s1.53-0.68 1.53-1.53"/>
											<path class="st28" d="m18.11 42.38c0 0.84 0.68 1.53 1.53 1.53s1.53-0.68 1.53-1.53"/>
										
										
											<path class="st28" d="m21.17 42.38c0 0.84 0.68 1.53 1.53 1.53s1.53-0.68 1.53-1.53"/>
											<path class="st28" d="m24.22 42.38c0 0.84 0.68 1.53 1.53 1.53s1.53-0.68 1.53-1.53"/>
											<path class="st28" d="m27.27 42.38c0 0.84 0.68 1.53 1.53 1.53s1.53-0.68 1.53-1.53"/>
											<path class="st28" d="m30.32 42.38c0 0.84 0.68 1.53 1.53 1.53 0.84 0 1.53-0.68 1.53-1.53"/>
											<path class="st28" d="m33.37 42.38c0 0.84 0.68 1.53 1.53 1.53s1.53-0.68 1.53-1.53"/>
										
									
									
										
											<path class="st28" d="m1.33 43.9c0 0.84 0.68 1.53 1.53 1.53s1.53-0.68 1.53-1.53"/>
											<path class="st28" d="m4.38 43.9c0 0.84 0.68 1.53 1.53 1.53s1.53-0.68 1.53-1.53"/>
											<path class="st28" d="m7.43 43.9c0 0.84 0.68 1.53 1.53 1.53s1.53-0.68 1.53-1.53"/>
											<path class="st28" d="m10.48 43.9c0 0.84 0.68 1.53 1.53 1.53s1.53-0.68 1.53-1.53"/>
											<path class="st28" d="m13.54 43.9c0 0.84 0.68 1.53 1.53 1.53s1.53-0.68 1.53-1.53"/>
											<path class="st28" d="m16.59 43.9c0 0.84 0.68 1.53 1.53 1.53s1.53-0.68 1.53-1.53"/>
										
										
											<path class="st28" d="m19.64 43.9c0 0.84 0.68 1.53 1.53 1.53s1.53-0.68 1.53-1.53"/>
											<path class="st28" d="m22.69 43.9c0 0.84 0.68 1.53 1.53 1.53s1.53-0.68 1.53-1.53"/>
											<path class="st28" d="m25.74 43.9c0 0.84 0.68 1.53 1.53 1.53s1.53-0.68 1.53-1.53"/>
											<path class="st28" d="m28.8 43.9c0 0.84 0.68 1.53 1.53 1.53s1.53-0.68 1.53-1.53"/>
											<path class="st28" d="m31.85 43.9c0 0.84 0.68 1.53 1.53 1.53s1.53-0.68 1.53-1.53"/>
											<path class="st28" d="m34.9 43.9c0 0.84 0.68 1.53 1.53 1.53s1.53-0.68 1.53-1.53"/>
										
									
									
										
											<path class="st28" d="m2.85 45.43c0 0.84 0.68 1.53 1.53 1.53s1.53-0.68 1.53-1.53"/>
											<path class="st28" d="m5.9 45.43c0 0.84 0.68 1.53 1.53 1.53s1.53-0.68 1.53-1.53"/>
											<path class="st28" d="m8.96 45.43c0 0.84 0.68 1.53 1.53 1.53s1.53-0.68 1.53-1.53"/>
											<path class="st28" d="m12.01 45.43c0 0.84 0.68 1.53 1.53 1.53s1.53-0.68 1.53-1.53"/>
											<path class="st28" d="m15.06 45.43c0 0.84 0.68 1.53 1.53 1.53s1.53-0.68 1.53-1.53"/>
											<path class="st28" d="m18.11 45.43c0 0.84 0.68 1.53 1.53 1.53s1.53-0.68 1.53-1.53"/>
										
										
											<path class="st28" d="m21.17 45.43c0 0.84 0.68 1.53 1.53 1.53s1.53-0.68 1.53-1.53"/>
											<path class="st28" d="m24.22 45.43c0 0.84 0.68 1.53 1.53 1.53s1.53-0.68 1.53-1.53"/>
											<path class="st28" d="m27.27 45.43c0 0.84 0.68 1.53 1.53 1.53s1.53-0.68 1.53-1.53"/>
											<path class="st28" d="m30.32 45.43c0 0.84 0.68 1.53 1.53 1.53 0.84 0 1.53-0.68 1.53-1.53"/>
											<path class="st28" d="m33.37 45.43c0 0.84 0.68 1.53 1.53 1.53s1.53-0.68 1.53-1.53"/>
										
									
								
								
									
										
											<path class="st28" d="m31.85 16.43c0 0.84 0.68 1.53 1.53 1.53s1.53-0.68 1.53-1.53"/>
											<path class="st28" d="m34.9 16.43c0 0.84 0.68 1.53 1.53 1.53s1.53-0.68 1.53-1.53"/>
											<path class="st28" d="m37.95 16.43c0 0.84 0.68 1.53 1.53 1.53s1.52-0.68 1.52-1.53"/>
											<path class="st28" d="m41 16.43c0 0.84 0.68 1.53 1.53 1.53s1.53-0.68 1.53-1.53"/>
											<path class="st28" d="m44.06 16.43c0 0.84 0.68 1.53 1.53 1.53s1.53-0.68 1.53-1.53"/>
											<path class="st28" d="m47.11 16.43c0 0.84 0.68 1.53 1.53 1.53s1.53-0.68 1.53-1.53"/>
										
										
											<path class="st28" d="m50.16 16.43c0 0.84 0.68 1.53 1.53 1.53s1.53-0.68 1.53-1.53"/>
											<path class="st28" d="m53.21 16.43c0 0.84 0.68 1.53 1.53 1.53s1.53-0.68 1.53-1.53"/>
											<path class="st28" d="m56.27 16.43c0 0.84 0.68 1.53 1.53 1.53s1.53-0.68 1.53-1.53"/>
											<path class="st28" d="m59.32 16.43c0 0.84 0.68 1.53 1.53 1.53s1.53-0.68 1.53-1.53"/>
											<path class="st28" d="m62.37 16.43c0 0.84 0.68 1.53 1.53 1.53 0.84 0 1.53-0.68 1.53-1.53"/>
											<path class="st28" d="m65.42 16.43c0 0.84 0.68 1.53 1.53 1.53 0.84 0 1.53-0.68 1.53-1.53"/>
										
									
									
										
											<path class="st28" d="m33.37 17.96c0 0.84 0.68 1.53 1.53 1.53s1.53-0.68 1.53-1.53"/>
											<path class="st28" d="m36.43 17.96c0 0.84 0.68 1.53 1.53 1.53s1.53-0.68 1.53-1.53"/>
											<path class="st28" d="m39.48 17.96c0 0.84 0.68 1.53 1.53 1.53s1.53-0.68 1.53-1.53"/>
											<path class="st28" d="m42.53 17.96c0 0.84 0.68 1.53 1.53 1.53s1.53-0.68 1.53-1.53"/>
											<path class="st28" d="m45.58 17.96c0 0.84 0.68 1.53 1.53 1.53s1.53-0.68 1.53-1.53"/>
											<path class="st28" d="m48.64 17.96c0 0.84 0.68 1.53 1.53 1.53s1.53-0.68 1.53-1.53"/>
										
										
											<path class="st28" d="m51.69 17.96c0 0.84 0.68 1.53 1.53 1.53s1.53-0.68 1.53-1.53"/>
											<path class="st28" d="m54.74 17.96c0 0.84 0.68 1.53 1.53 1.53s1.53-0.68 1.53-1.53"/>
											<path class="st28" d="m57.79 17.96c0 0.84 0.68 1.53 1.53 1.53s1.53-0.68 1.53-1.53"/>
											<path class="st28" d="m60.84 17.96c0 0.84 0.68 1.53 1.53 1.53s1.53-0.68 1.53-1.53"/>
											<path class="st28" d="m63.9 17.96c0 0.84 0.68 1.53 1.53 1.53 0.84 0 1.53-0.68 1.53-1.53"/>
										
									
									
										
											<path class="st28" d="m31.85 19.49c0 0.84 0.68 1.53 1.53 1.53s1.53-0.68 1.53-1.53"/>
											<path class="st28" d="m34.9 19.49c0 0.84 0.68 1.53 1.53 1.53s1.53-0.68 1.53-1.53"/>
											<path class="st28" d="m37.95 19.49c0 0.84 0.68 1.53 1.53 1.53s1.52-0.69 1.52-1.53"/>
											<path class="st28" d="m41 19.49c0 0.84 0.68 1.53 1.53 1.53s1.53-0.68 1.53-1.53"/>
											<path class="st28" d="m44.06 19.49c0 0.84 0.68 1.53 1.53 1.53s1.53-0.68 1.53-1.53"/>
											<path class="st28" d="m47.11 19.49c0 0.84 0.68 1.53 1.53 1.53s1.53-0.68 1.53-1.53"/>
										
										
											<path class="st28" d="m50.16 19.49c0 0.84 0.68 1.53 1.53 1.53s1.53-0.68 1.53-1.53"/>
											<path class="st28" d="m53.21 19.49c0 0.84 0.68 1.53 1.53 1.53s1.53-0.68 1.53-1.53"/>
											<path class="st28" d="m56.27 19.49c0 0.84 0.68 1.53 1.53 1.53s1.53-0.68 1.53-1.53"/>
											<path class="st28" d="m59.32 19.49c0 0.84 0.68 1.53 1.53 1.53s1.53-0.68 1.53-1.53"/>
											<path class="st28" d="m62.37 19.49c0 0.84 0.68 1.53 1.53 1.53 0.84 0 1.53-0.68 1.53-1.53"/>
											<path class="st28" d="m65.42 19.49c0 0.84 0.68 1.53 1.53 1.53 0.84 0 1.53-0.68 1.53-1.53"/>
										
									
									
										
											<path class="st28" d="m33.37 21.01c0 0.84 0.68 1.53 1.53 1.53s1.53-0.68 1.53-1.53"/>
											<path class="st28" d="m36.43 21.01c0 0.84 0.68 1.53 1.53 1.53s1.53-0.68 1.53-1.53"/>
											<path class="st28" d="m39.48 21.01c0 0.84 0.68 1.53 1.53 1.53s1.53-0.68 1.53-1.53"/>
											<path class="st28" d="m42.53 21.01c0 0.84 0.68 1.53 1.53 1.53s1.53-0.68 1.53-1.53"/>
											<path class="st28" d="m45.58 21.01c0 0.84 0.68 1.53 1.53 1.53s1.53-0.68 1.53-1.53"/>
											<path class="st28" d="m48.64 21.01c0 0.84 0.68 1.53 1.53 1.53s1.53-0.68 1.53-1.53"/>
										
										
											<path class="st28" d="m51.69 21.01c0 0.84 0.68 1.53 1.53 1.53s1.53-0.68 1.53-1.53"/>
											<path class="st28" d="m54.74 21.01c0 0.84 0.68 1.53 1.53 1.53s1.53-0.68 1.53-1.53"/>
											<path class="st28" d="m57.79 21.01c0 0.84 0.68 1.53 1.53 1.53s1.53-0.68 1.53-1.53"/>
											<path class="st28" d="m60.84 21.01c0 0.84 0.68 1.53 1.53 1.53s1.53-0.68 1.53-1.53"/>
											<path class="st28" d="m63.9 21.01c0 0.84 0.68 1.53 1.53 1.53 0.84 0 1.53-0.68 1.53-1.53"/>
										
									
									
										
											<path class="st28" d="m31.85 22.54c0 0.84 0.68 1.53 1.53 1.53s1.53-0.68 1.53-1.53"/>
											<path class="st28" d="m34.9 22.54c0 0.84 0.68 1.53 1.53 1.53s1.53-0.68 1.53-1.53"/>
											<path class="st28" d="m37.95 22.54c0 0.84 0.68 1.53 1.53 1.53s1.52-0.69 1.52-1.53"/>
											<path class="st28" d="m41 22.54c0 0.84 0.68 1.53 1.53 1.53s1.53-0.68 1.53-1.53"/>
											<path class="st28" d="m44.06 22.54c0 0.84 0.68 1.53 1.53 1.53s1.53-0.68 1.53-1.53"/>
											<path class="st28" d="m47.11 22.54c0 0.84 0.68 1.53 1.53 1.53s1.53-0.68 1.53-1.53"/>
										
										
											<path class="st28" d="m50.16 22.54c0 0.84 0.68 1.53 1.53 1.53s1.53-0.68 1.53-1.53"/>
											<path class="st28" d="m53.21 22.54c0 0.84 0.68 1.53 1.53 1.53s1.53-0.68 1.53-1.53"/>
											<path class="st28" d="m56.27 22.54c0 0.84 0.68 1.53 1.53 1.53s1.53-0.68 1.53-1.53"/>
											<path class="st28" d="m59.32 22.54c0 0.84 0.68 1.53 1.53 1.53s1.53-0.68 1.53-1.53"/>
											<path class="st28" d="m62.37 22.54c0 0.84 0.68 1.53 1.53 1.53 0.84 0 1.53-0.68 1.53-1.53"/>
											<path class="st28" d="m65.42 22.54c0 0.84 0.68 1.53 1.53 1.53 0.84 0 1.53-0.68 1.53-1.53"/>
										
									
									
										
											<path class="st28" d="m33.37 24.07c0 0.84 0.68 1.53 1.53 1.53s1.53-0.68 1.53-1.53"/>
											<path class="st28" d="m36.43 24.07c0 0.84 0.68 1.53 1.53 1.53s1.53-0.68 1.53-1.53"/>
											<path class="st28" d="m39.48 24.07c0 0.84 0.68 1.53 1.53 1.53s1.53-0.68 1.53-1.53"/>
											<path class="st28" d="m42.53 24.07c0 0.84 0.68 1.53 1.53 1.53s1.53-0.68 1.53-1.53"/>
											<path class="st28" d="m45.58 24.07c0 0.84 0.68 1.53 1.53 1.53s1.53-0.68 1.53-1.53"/>
											<path class="st28" d="m48.64 24.07c0 0.84 0.68 1.53 1.53 1.53s1.53-0.68 1.53-1.53"/>
										
										
											<path class="st28" d="m51.69 24.07c0 0.84 0.68 1.53 1.53 1.53s1.53-0.68 1.53-1.53"/>
											<path class="st28" d="m54.74 24.07c0 0.84 0.68 1.53 1.53 1.53s1.53-0.68 1.53-1.53"/>
											<path class="st28" d="m57.79 24.07c0 0.84 0.68 1.53 1.53 1.53s1.53-0.68 1.53-1.53"/>
											<path class="st28" d="m60.84 24.07c0 0.84 0.68 1.53 1.53 1.53s1.53-0.68 1.53-1.53"/>
											<path class="st28" d="m63.9 24.07c0 0.84 0.68 1.53 1.53 1.53 0.84 0 1.53-0.68 1.53-1.53"/>
										
									
									
										
											<path class="st28" d="m31.85 25.59c0 0.84 0.68 1.53 1.53 1.53s1.53-0.68 1.53-1.53"/>
											<path class="st28" d="m34.9 25.59c0 0.84 0.68 1.53 1.53 1.53s1.53-0.68 1.53-1.53"/>
											<path class="st28" d="m37.95 25.59c0 0.84 0.68 1.53 1.53 1.53s1.52-0.69 1.52-1.53"/>
											<path class="st28" d="m41 25.59c0 0.84 0.68 1.53 1.53 1.53s1.53-0.68 1.53-1.53"/>
											<path class="st28" d="m44.06 25.59c0 0.84 0.68 1.53 1.53 1.53s1.53-0.68 1.53-1.53"/>
											<path class="st28" d="m47.11 25.59c0 0.84 0.68 1.53 1.53 1.53s1.53-0.68 1.53-1.53"/>
										
										
											<path class="st28" d="m50.16 25.59c0 0.84 0.68 1.53 1.53 1.53s1.53-0.68 1.53-1.53"/>
											<path class="st28" d="m53.21 25.59c0 0.84 0.68 1.53 1.53 1.53s1.53-0.68 1.53-1.53"/>
											<path class="st28" d="m56.27 25.59c0 0.84 0.68 1.53 1.53 1.53s1.53-0.68 1.53-1.53"/>
											<path class="st28" d="m59.32 25.59c0 0.84 0.68 1.53 1.53 1.53s1.53-0.68 1.53-1.53"/>
											<path class="st28" d="m62.37 25.59c0 0.84 0.68 1.53 1.53 1.53 0.84 0 1.53-0.68 1.53-1.53"/>
											<path class="st28" d="m65.42 25.59c0 0.84 0.68 1.53 1.53 1.53 0.84 0 1.53-0.68 1.53-1.53"/>
										
									
									
										
											<path class="st28" d="m33.37 27.12c0 0.84 0.68 1.53 1.53 1.53s1.53-0.68 1.53-1.53"/>
											<path class="st28" d="m36.43 27.12c0 0.84 0.68 1.53 1.53 1.53s1.53-0.68 1.53-1.53"/>
											<path class="st28" d="m39.48 27.12c0 0.84 0.68 1.53 1.53 1.53s1.53-0.68 1.53-1.53"/>
											<path class="st28" d="m42.53 27.12c0 0.84 0.68 1.53 1.53 1.53s1.53-0.68 1.53-1.53"/>
											<path class="st28" d="m45.58 27.12c0 0.84 0.68 1.53 1.53 1.53s1.53-0.68 1.53-1.53"/>
											<path class="st28" d="m48.64 27.12c0 0.84 0.68 1.53 1.53 1.53s1.53-0.68 1.53-1.53"/>
										
										
											<path class="st28" d="m51.69 27.12c0 0.84 0.68 1.53 1.53 1.53s1.53-0.68 1.53-1.53"/>
											<path class="st28" d="m54.74 27.12c0 0.84 0.68 1.53 1.53 1.53s1.53-0.68 1.53-1.53"/>
											<path class="st28" d="m57.79 27.12c0 0.84 0.68 1.53 1.53 1.53s1.53-0.68 1.53-1.53"/>
											<path class="st28" d="m60.84 27.12c0 0.84 0.68 1.53 1.53 1.53s1.53-0.68 1.53-1.53"/>
											<path class="st28" d="m63.9 27.12c0 0.84 0.68 1.53 1.53 1.53 0.84 0 1.53-0.68 1.53-1.53"/>
										
									
									
										
											<path class="st28" d="m31.85 28.64c0 0.84 0.68 1.53 1.53 1.53s1.53-0.68 1.53-1.53"/>
											<path class="st28" d="m34.9 28.64c0 0.84 0.68 1.53 1.53 1.53s1.53-0.68 1.53-1.53"/>
											<path class="st28" d="m37.95 28.64c0 0.84 0.68 1.53 1.53 1.53s1.52-0.68 1.52-1.53"/>
											<path class="st28" d="m41 28.64c0 0.84 0.68 1.53 1.53 1.53s1.53-0.68 1.53-1.53"/>
											<path class="st28" d="m44.06 28.64c0 0.84 0.68 1.53 1.53 1.53s1.53-0.68 1.53-1.53"/>
											<path class="st28" d="m47.11 28.64c0 0.84 0.68 1.53 1.53 1.53s1.53-0.68 1.53-1.53"/>
										
										
											<path class="st28" d="m50.16 28.64c0 0.84 0.68 1.53 1.53 1.53s1.53-0.68 1.53-1.53"/>
											<path class="st28" d="m53.21 28.64c0 0.84 0.68 1.53 1.53 1.53s1.53-0.68 1.53-1.53"/>
											<path class="st28" d="m56.27 28.64c0 0.84 0.68 1.53 1.53 1.53s1.53-0.68 1.53-1.53"/>
											<path class="st28" d="m59.32 28.64c0 0.84 0.68 1.53 1.53 1.53s1.53-0.68 1.53-1.53"/>
											<path class="st28" d="m62.37 28.64c0 0.84 0.68 1.53 1.53 1.53 0.84 0 1.53-0.68 1.53-1.53"/>
											<path class="st28" d="m65.42 28.64c0 0.84 0.68 1.53 1.53 1.53 0.84 0 1.53-0.68 1.53-1.53"/>
										
									
									
										
											<path class="st28" d="m33.37 30.17c0 0.84 0.68 1.53 1.53 1.53s1.53-0.68 1.53-1.53"/>
											<path class="st28" d="m36.43 30.17c0 0.84 0.68 1.53 1.53 1.53s1.53-0.68 1.53-1.53"/>
											<path class="st28" d="m39.48 30.17c0 0.84 0.68 1.53 1.53 1.53s1.53-0.68 1.53-1.53"/>
											<path class="st28" d="m42.53 30.17c0 0.84 0.68 1.53 1.53 1.53s1.53-0.68 1.53-1.53"/>
											<path class="st28" d="m45.58 30.17c0 0.84 0.68 1.53 1.53 1.53s1.53-0.68 1.53-1.53"/>
											<path class="st28" d="m48.64 30.17c0 0.84 0.68 1.53 1.53 1.53s1.53-0.68 1.53-1.53"/>
										
										
											<path class="st28" d="m51.69 30.17c0 0.84 0.68 1.53 1.53 1.53s1.53-0.68 1.53-1.53"/>
											<path class="st28" d="m54.74 30.17c0 0.84 0.68 1.53 1.53 1.53s1.53-0.68 1.53-1.53"/>
											<path class="st28" d="m57.79 30.17c0 0.84 0.68 1.53 1.53 1.53s1.53-0.68 1.53-1.53"/>
											<path class="st28" d="m60.84 30.17c0 0.84 0.68 1.53 1.53 1.53s1.53-0.68 1.53-1.53"/>
											<path class="st28" d="m63.9 30.17c0 0.84 0.68 1.53 1.53 1.53 0.84 0 1.53-0.68 1.53-1.53"/>
										
									
								
								
									
										
											<path class="st28" d="m31.85 31.7c0 0.84 0.68 1.53 1.53 1.53s1.53-0.68 1.53-1.53"/>
											<path class="st28" d="m34.9 31.7c0 0.84 0.68 1.53 1.53 1.53s1.53-0.68 1.53-1.53"/>
											<path class="st28" d="m37.95 31.7c0 0.84 0.68 1.53 1.53 1.53s1.52-0.69 1.52-1.53"/>
											<path class="st28" d="m41 31.7c0 0.84 0.68 1.53 1.53 1.53s1.53-0.68 1.53-1.53"/>
											<path class="st28" d="m44.06 31.7c0 0.84 0.68 1.53 1.53 1.53s1.53-0.68 1.53-1.53"/>
											<path class="st28" d="m47.11 31.7c0 0.84 0.68 1.53 1.53 1.53s1.53-0.68 1.53-1.53"/>
										
										
											<path class="st28" d="m50.16 31.7c0 0.84 0.68 1.53 1.53 1.53s1.53-0.68 1.53-1.53"/>
											<path class="st28" d="m53.21 31.7c0 0.84 0.68 1.53 1.53 1.53s1.53-0.68 1.53-1.53"/>
											<path class="st28" d="m56.27 31.7c0 0.84 0.68 1.53 1.53 1.53s1.53-0.68 1.53-1.53"/>
											<path class="st28" d="m59.32 31.7c0 0.84 0.68 1.53 1.53 1.53s1.53-0.68 1.53-1.53"/>
											<path class="st28" d="m62.37 31.7c0 0.84 0.68 1.53 1.53 1.53 0.84 0 1.53-0.68 1.53-1.53"/>
											<path class="st28" d="m65.42 31.7c0 0.84 0.68 1.53 1.53 1.53 0.84 0 1.53-0.68 1.53-1.53"/>
										
									
									
										
											<path class="st28" d="m33.37 33.22c0 0.84 0.68 1.53 1.53 1.53s1.53-0.68 1.53-1.53"/>
											<path class="st28" d="m36.43 33.22c0 0.84 0.68 1.53 1.53 1.53s1.53-0.68 1.53-1.53"/>
											<path class="st28" d="m39.48 33.22c0 0.84 0.68 1.53 1.53 1.53s1.53-0.68 1.53-1.53"/>
											<path class="st28" d="m42.53 33.22c0 0.84 0.68 1.53 1.53 1.53s1.53-0.68 1.53-1.53"/>
											<path class="st28" d="m45.58 33.22c0 0.84 0.68 1.53 1.53 1.53s1.53-0.68 1.53-1.53"/>
											<path class="st28" d="m48.64 33.22c0 0.84 0.68 1.53 1.53 1.53s1.53-0.68 1.53-1.53"/>
										
										
											<path class="st28" d="m51.69 33.22c0 0.84 0.68 1.53 1.53 1.53s1.53-0.68 1.53-1.53"/>
											<path class="st28" d="m54.74 33.22c0 0.84 0.68 1.53 1.53 1.53s1.53-0.68 1.53-1.53"/>
											<path class="st28" d="m57.79 33.22c0 0.84 0.68 1.53 1.53 1.53s1.53-0.68 1.53-1.53"/>
											<path class="st28" d="m60.84 33.22c0 0.84 0.68 1.53 1.53 1.53s1.53-0.68 1.53-1.53"/>
											<path class="st28" d="m63.9 33.22c0 0.84 0.68 1.53 1.53 1.53 0.84 0 1.53-0.68 1.53-1.53"/>
										
									
									
										
											<path class="st28" d="m31.85 34.75c0 0.84 0.68 1.53 1.53 1.53s1.53-0.68 1.53-1.53"/>
											<path class="st28" d="m34.9 34.75c0 0.84 0.68 1.53 1.53 1.53s1.53-0.68 1.53-1.53"/>
											<path class="st28" d="m37.95 34.75c0 0.84 0.68 1.53 1.53 1.53s1.52-0.69 1.52-1.53"/>
											<path class="st28" d="m41 34.75c0 0.84 0.68 1.53 1.53 1.53s1.53-0.68 1.53-1.53"/>
											<path class="st28" d="m44.06 34.75c0 0.84 0.68 1.53 1.53 1.53s1.53-0.68 1.53-1.53"/>
											<path class="st28" d="m47.11 34.75c0 0.84 0.68 1.53 1.53 1.53s1.53-0.68 1.53-1.53"/>
										
										
											<path class="st28" d="m50.16 34.75c0 0.84 0.68 1.53 1.53 1.53s1.53-0.68 1.53-1.53"/>
											<path class="st28" d="m53.21 34.75c0 0.84 0.68 1.53 1.53 1.53s1.53-0.68 1.53-1.53"/>
											<path class="st28" d="m56.27 34.75c0 0.84 0.68 1.53 1.53 1.53s1.53-0.68 1.53-1.53"/>
											<path class="st28" d="m59.32 34.75c0 0.84 0.68 1.53 1.53 1.53s1.53-0.68 1.53-1.53"/>
											<path class="st28" d="m62.37 34.75c0 0.84 0.68 1.53 1.53 1.53 0.84 0 1.53-0.68 1.53-1.53"/>
											<path class="st28" d="m65.42 34.75c0 0.84 0.68 1.53 1.53 1.53 0.84 0 1.53-0.68 1.53-1.53"/>
										
									
									
										
											<path class="st28" d="m33.37 36.27c0 0.84 0.68 1.53 1.53 1.53s1.53-0.68 1.53-1.53"/>
											<path class="st28" d="m36.43 36.27c0 0.84 0.68 1.53 1.53 1.53s1.53-0.68 1.53-1.53"/>
											<path class="st28" d="m39.48 36.27c0 0.84 0.68 1.53 1.53 1.53s1.53-0.68 1.53-1.53"/>
											<path class="st28" d="m42.53 36.27c0 0.84 0.68 1.53 1.53 1.53s1.53-0.68 1.53-1.53"/>
											<path class="st28" d="m45.58 36.27c0 0.84 0.68 1.53 1.53 1.53s1.53-0.68 1.53-1.53"/>
											<path class="st28" d="m48.64 36.27c0 0.84 0.68 1.53 1.53 1.53s1.53-0.68 1.53-1.53"/>
										
										
											<path class="st28" d="m51.69 36.27c0 0.84 0.68 1.53 1.53 1.53s1.53-0.68 1.53-1.53"/>
											<path class="st28" d="m54.74 36.27c0 0.84 0.68 1.53 1.53 1.53s1.53-0.68 1.53-1.53"/>
											<path class="st28" d="m57.79 36.27c0 0.84 0.68 1.53 1.53 1.53s1.53-0.68 1.53-1.53"/>
											<path class="st28" d="m60.84 36.27c0 0.84 0.68 1.53 1.53 1.53s1.53-0.68 1.53-1.53"/>
											<path class="st28" d="m63.9 36.27c0 0.84 0.68 1.53 1.53 1.53 0.84 0 1.53-0.68 1.53-1.53"/>
										
									
									
										
											<path class="st28" d="m31.85 37.8c0 0.84 0.68 1.53 1.53 1.53s1.53-0.68 1.53-1.53"/>
											<path class="st28" d="m34.9 37.8c0 0.84 0.68 1.53 1.53 1.53s1.53-0.68 1.53-1.53"/>
											<path class="st28" d="m37.95 37.8c0 0.84 0.68 1.53 1.53 1.53s1.52-0.69 1.52-1.53"/>
											<path class="st28" d="m41 37.8c0 0.84 0.68 1.53 1.53 1.53s1.53-0.68 1.53-1.53"/>
											<path class="st28" d="m44.06 37.8c0 0.84 0.68 1.53 1.53 1.53s1.53-0.68 1.53-1.53"/>
											<path class="st28" d="m47.11 37.8c0 0.84 0.68 1.53 1.53 1.53s1.53-0.68 1.53-1.53"/>
										
										
											<path class="st28" d="m50.16 37.8c0 0.84 0.68 1.53 1.53 1.53s1.53-0.68 1.53-1.53"/>
											<path class="st28" d="m53.21 37.8c0 0.84 0.68 1.53 1.53 1.53s1.53-0.68 1.53-1.53"/>
											<path class="st28" d="m56.27 37.8c0 0.84 0.68 1.53 1.53 1.53s1.53-0.68 1.53-1.53"/>
											<path class="st28" d="m59.32 37.8c0 0.84 0.68 1.53 1.53 1.53s1.53-0.68 1.53-1.53"/>
											<path class="st28" d="m62.37 37.8c0 0.84 0.68 1.53 1.53 1.53 0.84 0 1.53-0.68 1.53-1.53"/>
											<path class="st28" d="m65.42 37.8c0 0.84 0.68 1.53 1.53 1.53 0.84 0 1.53-0.68 1.53-1.53"/>
										
									
									
										
											<path class="st28" d="m33.37 39.33c0 0.84 0.68 1.53 1.53 1.53s1.53-0.68 1.53-1.53"/>
											<path class="st28" d="m36.43 39.33c0 0.84 0.68 1.53 1.53 1.53s1.53-0.68 1.53-1.53"/>
											<path class="st28" d="m39.48 39.33c0 0.84 0.68 1.53 1.53 1.53s1.53-0.68 1.53-1.53"/>
											<path class="st28" d="m42.53 39.33c0 0.84 0.68 1.53 1.53 1.53s1.53-0.68 1.53-1.53"/>
											<path class="st28" d="m45.58 39.33c0 0.84 0.68 1.53 1.53 1.53s1.53-0.68 1.53-1.53"/>
											<path class="st28" d="m48.64 39.33c0 0.84 0.68 1.53 1.53 1.53s1.53-0.68 1.53-1.53"/>
										
										
											<path class="st28" d="m51.69 39.33c0 0.84 0.68 1.53 1.53 1.53s1.53-0.68 1.53-1.53"/>
											<path class="st28" d="m54.74 39.33c0 0.84 0.68 1.53 1.53 1.53s1.53-0.68 1.53-1.53"/>
											<path class="st28" d="m57.79 39.33c0 0.84 0.68 1.53 1.53 1.53s1.53-0.68 1.53-1.53"/>
											<path class="st28" d="m60.84 39.33c0 0.84 0.68 1.53 1.53 1.53s1.53-0.68 1.53-1.53"/>
											<path class="st28" d="m63.9 39.33c0 0.84 0.68 1.53 1.53 1.53 0.84 0 1.53-0.68 1.53-1.53"/>
										
									
									
										
											<path class="st28" d="m31.85 40.85c0 0.84 0.68 1.53 1.53 1.53s1.53-0.68 1.53-1.53"/>
											<path class="st28" d="m34.9 40.85c0 0.84 0.68 1.53 1.53 1.53s1.53-0.68 1.53-1.53"/>
											<path class="st28" d="m37.95 40.85c0 0.84 0.68 1.53 1.53 1.53s1.52-0.68 1.52-1.53"/>
											<path class="st28" d="m41 40.85c0 0.84 0.68 1.53 1.53 1.53s1.53-0.68 1.53-1.53"/>
											<path class="st28" d="m44.06 40.85c0 0.84 0.68 1.53 1.53 1.53s1.53-0.68 1.53-1.53"/>
											<path class="st28" d="m47.11 40.85c0 0.84 0.68 1.53 1.53 1.53s1.53-0.68 1.53-1.53"/>
										
										
											<path class="st28" d="m50.16 40.85c0 0.84 0.68 1.53 1.53 1.53s1.53-0.68 1.53-1.53"/>
											<path class="st28" d="m53.21 40.85c0 0.84 0.68 1.53 1.53 1.53s1.53-0.68 1.53-1.53"/>
											<path class="st28" d="m56.27 40.85c0 0.84 0.68 1.53 1.53 1.53s1.53-0.68 1.53-1.53"/>
											<path class="st28" d="m59.32 40.85c0 0.84 0.68 1.53 1.53 1.53s1.53-0.68 1.53-1.53"/>
											<path class="st28" d="m62.37 40.85c0 0.84 0.68 1.53 1.53 1.53 0.84 0 1.53-0.68 1.53-1.53"/>
											<path class="st28" d="m65.42 40.85c0 0.84 0.68 1.53 1.53 1.53 0.84 0 1.53-0.68 1.53-1.53"/>
										
									
									
										
											<path class="st28" d="m33.37 42.38c0 0.84 0.68 1.53 1.53 1.53s1.53-0.68 1.53-1.53"/>
											<path class="st28" d="m36.43 42.38c0 0.84 0.68 1.53 1.53 1.53s1.53-0.68 1.53-1.53"/>
											<path class="st28" d="m39.48 42.38c0 0.84 0.68 1.53 1.53 1.53s1.53-0.68 1.53-1.53"/>
											<path class="st28" d="m42.53 42.38c0 0.84 0.68 1.53 1.53 1.53s1.53-0.68 1.53-1.53"/>
											<path class="st28" d="m45.58 42.38c0 0.84 0.68 1.53 1.53 1.53s1.53-0.68 1.53-1.53"/>
											<path class="st28" d="m48.64 42.38c0 0.84 0.68 1.53 1.53 1.53s1.53-0.68 1.53-1.53"/>
										
										
											<path class="st28" d="m51.69 42.38c0 0.84 0.68 1.53 1.53 1.53s1.53-0.68 1.53-1.53"/>
											<path class="st28" d="m54.74 42.38c0 0.84 0.68 1.53 1.53 1.53s1.53-0.68 1.53-1.53"/>
											<path class="st28" d="m57.79 42.38c0 0.84 0.68 1.53 1.53 1.53s1.53-0.68 1.53-1.53"/>
											<path class="st28" d="m60.84 42.38c0 0.84 0.68 1.53 1.53 1.53s1.53-0.68 1.53-1.53"/>
											<path class="st28" d="m63.9 42.38c0 0.84 0.68 1.53 1.53 1.53 0.84 0 1.53-0.68 1.53-1.53"/>
										
									
									
										
											<path class="st28" d="m31.85 43.9c0 0.84 0.68 1.53 1.53 1.53s1.53-0.68 1.53-1.53"/>
											<path class="st28" d="m34.9 43.9c0 0.84 0.68 1.53 1.53 1.53s1.53-0.68 1.53-1.53"/>
											<path class="st28" d="m37.95 43.9c0 0.84 0.68 1.53 1.53 1.53s1.52-0.68 1.52-1.53"/>
											<path class="st28" d="m41 43.9c0 0.84 0.68 1.53 1.53 1.53s1.53-0.68 1.53-1.53"/>
											<path class="st28" d="m44.06 43.9c0 0.84 0.68 1.53 1.53 1.53s1.53-0.68 1.53-1.53"/>
											<path class="st28" d="m47.11 43.9c0 0.84 0.68 1.53 1.53 1.53s1.53-0.68 1.53-1.53"/>
										
										
											<path class="st28" d="m50.16 43.9c0 0.84 0.68 1.53 1.53 1.53s1.53-0.68 1.53-1.53"/>
											<path class="st28" d="m53.21 43.9c0 0.84 0.68 1.53 1.53 1.53s1.53-0.68 1.53-1.53"/>
											<path class="st28" d="m56.27 43.9c0 0.84 0.68 1.53 1.53 1.53s1.53-0.68 1.53-1.53"/>
											<path class="st28" d="m59.32 43.9c0 0.84 0.68 1.53 1.53 1.53s1.53-0.68 1.53-1.53"/>
											<path class="st28" d="m62.37 43.9c0 0.84 0.68 1.53 1.53 1.53 0.84 0 1.53-0.68 1.53-1.53"/>
											<path class="st28" d="m65.42 43.9c0 0.84 0.68 1.53 1.53 1.53 0.84 0 1.53-0.68 1.53-1.53"/>
										
									
									
										
											<path class="st28" d="m33.37 45.43c0 0.84 0.68 1.53 1.53 1.53s1.53-0.68 1.53-1.53"/>
											<path class="st28" d="m36.43 45.43c0 0.84 0.68 1.53 1.53 1.53s1.53-0.68 1.53-1.53"/>
											<path class="st28" d="m39.48 45.43c0 0.84 0.68 1.53 1.53 1.53s1.53-0.68 1.53-1.53"/>
											<path class="st28" d="m42.53 45.43c0 0.84 0.68 1.53 1.53 1.53s1.53-0.68 1.53-1.53"/>
											<path class="st28" d="m45.58 45.43c0 0.84 0.68 1.53 1.53 1.53s1.53-0.68 1.53-1.53"/>
											<path class="st28" d="m48.64 45.43c0 0.84 0.68 1.53 1.53 1.53s1.53-0.68 1.53-1.53"/>
										
										
											<path class="st28" d="m51.69 45.43c0 0.84 0.68 1.53 1.53 1.53s1.53-0.68 1.53-1.53"/>
											<path class="st28" d="m54.74 45.43c0 0.84 0.68 1.53 1.53 1.53s1.53-0.68 1.53-1.53"/>
											<path class="st28" d="m57.79 45.43c0 0.84 0.68 1.53 1.53 1.53s1.53-0.68 1.53-1.53"/>
											<path class="st28" d="m60.84 45.43c0 0.84 0.68 1.53 1.53 1.53s1.53-0.68 1.53-1.53"/>
											<path class="st28" d="m63.9 45.43c0 0.84 0.68 1.53 1.53 1.53 0.84 0 1.53-0.68 1.53-1.53"/>
										
									
								</g>
							</g>
						
						
							<path class="st10" d="m47.07 16.96c-3.59 9.3-0.92 20.74 8.13 25.59 1.27 0.7 2.66 1.17 4.17 1.66-1.52 0.41-3.16 0.45-4.79 0.21-12.22-2.07-16.84-19.53-7.51-27.46z"/>
						</g>
					
					<circle class="st11" cx="52.54" cy="24.3" r="3.42"/>
					<circle class="st104" cx="52.54" cy="23.64" r="2.4"/>
					<circle class="st11" cx="53.36" cy="22.82" r=".68"/>
					
						<path class="st104" d="m67.65 34.31c4.04-3.88 4.03-10.19 0-14.08 6.69 1.77 6.68 12.31 0 14.08z"/>
					
					
						<path class="st104" d="m67.65 41.98c10.97-7.64 10.96-21.78 0-29.42 13.61 5.18 13.58 24.25 0 29.42z"/>
					
				
				
					<path class="st11" d="m36.77 6.36c14.85 0.29 21.43 13.94 22.26 17.3l0.11 0.44 0.44 0.11c0.29 0.07 0.54 0.1 0.78 0.1 0.87 0 1.61-0.46 2.48-1.55l0.22-0.27 0.02 0.35c0.09 2-0.61 3.44-2.22 4.52l-0.85 0.57 0.8 0.64c0.92 0.73 1.49 1.78 1.7 3.11l0.05 0.32-0.26-0.2c-0.86-0.66-1.62-0.99-2.26-0.99-0.19 0-0.37 0.03-0.54 0.09-0.04 0.01-0.08 0.03-0.11 0.04l-0.35 0.14-0.1 0.36c-0.65 2.33-7.24 15.02-20.75 15.02-4.69 0-9.41-1.75-13.64-5.03l-0.18-0.15-0.1-0.08 0.08-0.1 2.68-3.17c0.32-0.38 0.48-0.87 0.44-1.37s-0.28-0.96-0.66-1.28l-3.94-3.32c-0.34-0.29-0.77-0.44-1.21-0.44-0.45 0-0.88 0.16-1.22 0.45l-7.35 6.23v-21.91l7.42 6.3c0.34 0.29 0.77 0.45 1.22 0.45 0.44 0 0.88-0.16 1.21-0.44l3.3-2.78c0.39-0.32 0.62-0.78 0.66-1.28s-0.11-0.99-0.44-1.37l-4.33-5.13-0.08-0.1 0.1-0.08 0.19-0.16c4.48-3.5 9.47-5.34 14.43-5.34m0.01-0.75c-5.13 0-10.28 1.89-14.89 5.48l-0.21 0.18-0.68 0.57 0.57 0.67 4.33 5.13c0.4 0.48 0.34 1.19-0.14 1.6l-3.3 2.79c-0.21 0.18-0.47 0.27-0.73 0.27s-0.52-0.09-0.73-0.27l-8.45-7.18c-0.02-0.02-0.05-0.03-0.08-0.03-0.06 0-0.13 0.05-0.13 0.13v24.59c0 0.07 0.06 0.13 0.13 0.13 0.03 0 0.06-0.01 0.08-0.03l8.38-7.1c0.21-0.18 0.47-0.27 0.73-0.27s0.52 0.09 0.73 0.27l3.94 3.32c0.48 0.4 0.54 1.12 0.14 1.6l-2.68 3.17-0.57 0.67 0.67 0.57 0.17 0.13c4.39 3.41 9.26 5.21 14.12 5.21 13.47 0 20.59-12.39 21.48-15.57 0.03-0.01 0.05-0.02 0.08-0.03 0.1-0.03 0.19-0.05 0.3-0.05 0.33 0 0.91 0.14 1.81 0.83l1.74 1.33-0.34-2.17c-0.24-1.53-0.9-2.73-1.97-3.58 1.81-1.22 2.65-2.93 2.55-5.17l-0.11-2.33-1.46 1.82c-0.9 1.12-1.46 1.27-1.9 1.27-0.18 0-0.37-0.03-0.6-0.08-0.73-2.95-7.22-17.56-22.98-17.87z"/>
				
				
					<path class="st11" d="m42.61 26.96c-5.52 5.94-15.53 7.3-22.59 3.18-1.74-0.96-3.04-2.29-4.75-3.21-3.17-1.76-6.88-2.41-10.53-2.15 0.17901-0.049389 2.1047-1.0069 0.28392-0.016556 3.9965-2.2156 7.7194-1.9701 11.516-0.30344 1.79 0.76 3.32 2.17 4.97 3.08 6.51 3.65 14.51 2.89 21.1-0.58z"/>
				
				
					<path class="st104" d="m42.61 26.96c-5.63 4.89-14.5 5.29-21.06 1.93-1.58-0.79-3.06-1.91-4.54-2.87-4.37-2.66-9.62-2.39-14.17 0.34 2.26-2.82 6.04-4.56 9.95-4.36 3.85-0.01 6.92 2.43 10.11 4.21 6.13 3.07 13.23 3.26 19.71 0.75z"/>
				
			</g><g clip-path="url(#clipPath488)">
				<path class="st14" d="m57.31 23.1c2.56 1.26 3.6 2.03 5.64-0.26 0.36 3.83-2.69 5.3-5.81 6.26 0.01 0 0.17-6 0.17-6z"/>
			</g><g clip-path="url(#clipPath487)">
				<path class="st14" d="m55.64 26.89c3.14 0.31 6.35 1.09 6.75 4.81-2.43-1.72-3.18-0.72-5.32 1.02 0-0.01-1.43-5.83-1.43-5.83z"/>
			</g>
			
		
	
</g>
</svg>
