<?xml version="1.0" encoding="UTF-8" standalone="no"?>
<!-- Uploaded to: SVG Repo, www.svgrepo.com, Generator: SVG Repo Mixer Tools -->

<svg
   fill="#000000"
   version="1.1"
   id="Capa_1"
   width="800px"
   height="800px"
   viewBox="0 0 305.002 305.002"
   xml:space="preserve"
   sodipodi:docname="partial.svg"
   inkscape:version="1.3.1 (91b66b0, 2023-11-16)"
   inkscape:export-filename="../Documents/oldi/oldi.org/partial.png"
   inkscape:export-xdpi="96"
   inkscape:export-ydpi="96"
   xmlns:inkscape="http://www.inkscape.org/namespaces/inkscape"
   xmlns:sodipodi="http://sodipodi.sourceforge.net/DTD/sodipodi-0.dtd"
   xmlns="http://www.w3.org/2000/svg"
   xmlns:svg="http://www.w3.org/2000/svg"><sodipodi:namedview
   id="namedview1"
   pagecolor="#ffffff"
   bordercolor="#000000"
   borderopacity="0.25"
   inkscape:showpageshadow="2"
   inkscape:pageopacity="0.0"
   inkscape:pagecheckerboard="0"
   inkscape:deskcolor="#d1d1d1"
   inkscape:zoom="0.54893681"
   inkscape:cx="287.82912"
   inkscape:cy="92.906868"
   inkscape:window-width="1728"
   inkscape:window-height="1051"
   inkscape:window-x="423"
   inkscape:window-y="1638"
   inkscape:window-maximized="1"
   inkscape:current-layer="Capa_1" /><defs
   id="defs3"><clipPath
   clipPathUnits="userSpaceOnUse"
   id="clipPath65"><path
     id="path65"
     style="stroke-width:0.1;stroke-linecap:square;paint-order:markers fill stroke;stop-color:#000000"
     d="m -880.82767,-187.29769 h 1640.84 v 73.28155 h -1640.84 z" /></clipPath><clipPath
   clipPathUnits="userSpaceOnUse"
   id="clipPath5"><path
     id="path5"
     style="stroke-width:0.1;stroke-linecap:square;paint-order:markers fill stroke;stop-color:#000000"
     d="m 438.25066,553.76374 859.87054,0 v 201.39554 l -859.87054,0 z"
     sodipodi:nodetypes="ccccc" /></clipPath><clipPath
   clipPathUnits="userSpaceOnUse"
   id="clipPath52"><path
     id="path52"
     style="stroke-width:0.1;stroke-linecap:square;paint-order:markers fill stroke;stop-color:#000000"
     d="m -880.82767,-187.29769 h 1640.84 v 73.28155 h -1640.84 z" /></clipPath>
	

		
		
	</defs>
<path
   d="M 152.502,0.001 C 68.412,0.001 0,68.412 0,152.501 c 0,84.089 68.412,152.5 152.502,152.5 84.089,0 152.5,-68.411 152.5,-152.5 0,-84.089 -68.411,-152.5 -152.5,-152.5 z"
   id="path1"
   style="fill:#99b300;fill-opacity:1;stroke-width:19.062625;stroke-dasharray:none" />
<g
   id="rect1"><path
     style="color:#000000;fill:#ffffff;stroke-linecap:round;stroke-linejoin:round;-inkscape-stroke:none;paint-order:fill markers stroke"
     d="M 76.856087,151.17067 H 228.14591 v 2.66066 H 76.856087 Z"
     id="path3" /><path
     style="color:#000000;fill:#ffffff;stroke-linecap:round;stroke-linejoin:round;-inkscape-stroke:none;paint-order:fill markers stroke"
     d="m 76.855469,125.60742 a 25.566706,25.566706 0 0 0 -25.564453,25.5625 v 2.66211 a 25.566706,25.566706 0 0 0 25.564453,25.5625 H 228.14648 a 25.566706,25.566706 0 0 0 25.56446,-25.5625 v -2.66211 a 25.566706,25.566706 0 0 0 -25.56446,-25.5625 z"
     id="path4" /></g></svg>
