<?xml version="1.0" encoding="UTF-8" standalone="no"?>
<!-- Uploaded to: SVG Repo, www.svgrepo.com, Generator: SVG Repo Mixer Tools -->

<svg
   fill="#000000"
   version="1.1"
   id="Capa_1"
   width="800px"
   height="800px"
   viewBox="0 0 361.117 361.117"
   xml:space="preserve"
   sodipodi:docname="warn.svg"
   inkscape:version="1.3.1 (91b66b0, 2023-11-16)"
   inkscape:export-filename="warn.png"
   inkscape:export-xdpi="96"
   inkscape:export-ydpi="96"
   xmlns:inkscape="http://www.inkscape.org/namespaces/inkscape"
   xmlns:sodipodi="http://sodipodi.sourceforge.net/DTD/sodipodi-0.dtd"
   xmlns:xlink="http://www.w3.org/1999/xlink"
   xmlns="http://www.w3.org/2000/svg"
   xmlns:svg="http://www.w3.org/2000/svg"><defs
   id="defs4">
	

		
		
		
	<clipPath
   clipPathUnits="userSpaceOnUse"
   id="clipPath5"><use
     x="0"
     y="0"
     xlink:href="#g4"
     id="use5" /></clipPath></defs><sodipodi:namedview
   id="namedview4"
   pagecolor="#ffffff"
   bordercolor="#000000"
   borderopacity="0.25"
   inkscape:showpageshadow="2"
   inkscape:pageopacity="0.0"
   inkscape:pagecheckerboard="0"
   inkscape:deskcolor="#d1d1d1"
   inkscape:zoom="0.68842116"
   inkscape:cx="310.85622"
   inkscape:cy="345.7186"
   inkscape:window-width="1728"
   inkscape:window-height="1051"
   inkscape:window-x="0"
   inkscape:window-y="38"
   inkscape:window-maximized="1"
   inkscape:current-layer="Capa_1" />
<g
   id="g5"
   clip-path="url(#clipPath5)"><g
     inkscape:label="Clip"
     id="g4"><path
       d="M 359.568,327.246 191.511,21.818 c -2.197,-3.993 -6.395,-6.474 -10.952,-6.474 -4.558,0 -8.754,2.481 -10.952,6.474 L 1.549,327.246 c -2.131,3.872 -2.058,8.582 0.191,12.388 2.249,3.805 6.34,6.139 10.76,6.139 h 336.117 c 4.421,0 8.512,-2.334 10.761,-6.139 2.249,-3.806 2.321,-8.516 0.19,-12.388 z"
       id="path1"
       sodipodi:nodetypes="ccscccsscc"
       style="fill:#ffcc00;fill-opacity:1" /></g></g><path
   d="m 164.894,134.05707 v 81.32308 c 0,8.65 7.014,15.665 15.665,15.665 8.65,0 15.665,-7.015 15.665,-15.665 v -81.32308 c 0,-8.65099 -7.015,-15.66499 -15.665,-15.66499 -8.651,0 -15.665,7.015 -15.665,15.66499 z"
   id="path2"
   style="fill:#ffffff;stroke:#ffffff;stroke-width:22.5698;stroke-dasharray:none;stroke-opacity:1"
   sodipodi:nodetypes="sssssss" /><path
   d="m 180.559,274.39192 c -9.097,0 -16.5,7.399 -16.5,16.5 0,9.098 7.403,16.5 16.5,16.5 9.097,0 16.5,-7.402 16.5,-16.5 0,-9.1 -7.404,-16.5 -16.5,-16.5 z"
   id="path3"
   style="fill:#ffffff;stroke:#ffffff;stroke-width:22.5698;stroke-dasharray:none;stroke-opacity:1" />
</svg>
